<?xml version="1.0" encoding="utf-8"?>
<!-- Generator: Adobe Illustrator 23.0.2, SVG Export Plug-In . SVG Version: 6.00 Build 0)  -->
<svg version="1.1" id="Layer_1" xmlns="http://www.w3.org/2000/svg" xmlns:xlink="http://www.w3.org/1999/xlink" x="0px" y="0px"
	 viewBox="0 0 40 40" style="enable-background:new 0 0 40 40;" xml:space="preserve">
<style type="text/css">
	.st0{fill:#E3C2A0;}
	.st1{fill:#EE5F40;}
	.st2{fill:none;stroke:#F49C88;stroke-width:8;stroke-miterlimit:10;}
	.st3{fill:#A3B3D4;}
	.st4{fill:#5E5E5E;}
	.st5{fill:#D0DC46;}
	.st6{fill:none;stroke:#F2F5CB;stroke-width:4;stroke-miterlimit:10;}
</style>
<g>
	<path class="st0" d="M9.7,25.5c0.1,0.2,0.3,0.2,0.5,0.2C10,25.6,9.9,25.5,9.7,25.5z"/>
	<polygon class="st0" points="10.2,25.8 10.2,25.8 10.2,25.8 	"/>
	<path class="st0" d="M11.1,29.9c0,0.1,0,0.1,0,0.2c0,0,0,0,0,0.1c0,0,0,0,0,0.1c0,0,0,0.1,0,0.1c0,0,0-0.1,0-0.1l0-0.1
		c0,0,0,0,0-0.1C11.2,30,11.1,30,11.1,29.9z"/>
	<path class="st0" d="M19.1,26.3l0-0.4c0.3,0,0.4,0.1,0.4,0.2c0,0.1,0.1,0.2,0.4,0.1c0-0.1,0.1-0.2,0.2-0.3c0.1,0,0.1,0,0.2,0
		c0,0,0.1,0,0.1,0l0,0l0.1,0c0.3,0,0.6,0,0.6-0.1c0,0,0.3,0,0.3,0.2c0-0.2,0.1-0.2,0.1-0.2c0.1,0,0.2,0,0.2,0c0-0.1-0.1-0.1-0.1-0.2
		c0.1,0,0.1-0.1,0.2-0.1c0.1,0,0.1-0.1,0.1-0.1c0.1,0.1,0.2,0.2,0.1,0.3c0.2,0,0.6-0.1,1-0.1c0.2,0,0.4,0,0.6,0c0.2,0,0.4,0,0.5,0
		l0.1,0l0,0c0,0,0,0,0,0l0,0c0,0,0,0,0,0c0,0,0,0,0,0l0,0l0,0l0-0.1l0-0.1l0-0.1l0-0.1c0-0.1,0-0.2,0-0.3c0-0.1,0-0.2,0-0.3l0-0.1
		l0-0.1l0-0.1c0-0.2,0-0.3,0-0.4c0-0.1,0-0.1,0-0.2c0,0,0-0.1,0-0.1l0-0.1c0-0.1,0-0.3,0-0.4l0-0.1l0-0.1c0-0.1,0-0.1,0-0.2
		c0-0.1,0-0.2,0.1-0.3c0-0.1,0-0.2,0.1-0.3c0,0,0-0.1,0-0.1l0,0l0,0l0-0.1c0-0.1,0-0.2,0.1-0.2l0-0.1c0,0,0,0,0,0c0,0,0-0.1,0-0.1
		c0,0,0-0.1,0-0.1l0,0l0,0l0,0c0.2-0.5,0.4-1,0.6-1.5c0,0,0,0,0,0c0,0,0,0,0,0c0,0,0,0,0,0c0,0,0,0,0,0c-8-8.7-2.2-2.5-4-4.4l0-0.1
		l0-0.1l0-0.1c0,0,0,0,0,0l0,0l0,0c0,0,0,0-0.1,0c0,0-0.1,0.1-0.1,0.1c-0.1,0.1-0.2,0.1-0.2,0.2c-0.3,0.2-0.5,0.4-0.6,0.5
		c0.2,0,0.3-0.1,0.5-0.2c0.2-0.1,0.3-0.1,0.6,0c-0.1,0.2-0.2,0.3-0.3,0.3c-0.1,0.1-0.2,0.1-0.2,0.2c-0.3-0.1-0.5,0-0.6,0.1
		c-0.2,0.1-0.4,0.3-0.7,0.3l0.1,0.1c0,0,0,0,0,0.1c0,0,0,0,0.1,0.1c-0.1,0-0.1,0-0.2,0c0,0.1-0.1,0.2-0.1,0.2c0,0.1-0.1,0.2-0.1,0.2
		c0,0.1-0.1,0.2-0.1,0.3c0,0.2-0.1,0.2-0.1,0.2c0,0-0.1,0.1-0.1,0.2c-0.1,0.1-0.2,0.3-0.3,0.7c0,0.1,0,0.1,0,0.2c0,0,0,0.1,0,0.1
		c0,0,0,0.1,0,0.1c0,0.1,0,0.1,0,0.2c0,0,0,0.1,0,0.1c0,0,0,0,0,0c0,0,0,0,0,0c0,0.1,0.1,0.2,0.1,0.3c0,0,0,0.1,0,0.1c0,0,0,0,0,0.1
		c0,0,0,0,0,0.1l0,0c0,0,0,0,0,0l0,0l0,0c0,0,0,0.1,0,0.1c0,0,0,0.1,0,0.1c0,0.1,0,0.1-0.1,0.1c0,0,0.2,0,0.3,0.1
		c-0.3-0.1,0.1,0.3-0.2,0.3c0,0.1-0.1,0.2-0.1,0.3c0,0.1,0,0.2,0.2,0.2c-0.2,0-0.4,0.3-0.5,0c-0.1,0.1-0.2,0.2-0.1,0.3l0.2-0.1
		c-0.1,0.4-0.5,0.6-0.3,1l0.2-0.1C18.4,22.7,18.4,23,18,23l0-0.4c0,0.1,0,0.1-0.1,0.2c0,0.1,0,0.1-0.1,0.2c0,0.1,0,0.1-0.1,0.2
		c0,0,0,0.1,0,0.1c0,0,0,0.1,0,0.1c-0.1,0.3-0.1,0.6-0.1,0.9c0-0.1,0.1-0.1,0.1-0.2c0,0.1,0,0.4,0,0.6c0,0.3,0,0.6,0,0.9
		c0,0,0,0,0,0c0,0,0,0,0,0l0,0c0,0,0,0,0,0c0,0,0,0,0,0.1c0,0,0,0.1,0,0.1c0,0,0,0,0,0.1l0,0c0,0,0,0,0,0c0,0,0,0,0,0.1c0,0,0,0,0,0
		l0,0l0,0c0,0,0,0,0,0c0,0,0,0,0,0c0,0,0,0,0,0c0,0,0,0,0,0l0,0l0,0c0,0,0,0,0.1,0c0,0,0.1,0,0.1,0.1c0,0,0.1,0,0.1,0
		c0,0,0.1,0,0.1,0c0.1,0,0.1,0.1,0.1,0.1c0,0,0,0,0.1,0c0,0,0,0,0,0c0.1,0,0.1,0.1,0.1,0.1c-0.1,0-0.1-0.1-0.2-0.1
		c0.1,0,0.1,0.1,0.2,0.1c0,0,0,0,0,0l0,0c0,0,0,0,0.1,0c0,0,0,0-0.1-0.1c0,0,0,0,0,0c0,0,0,0,0,0c0,0,0,0,0,0c0,0,0,0,0,0
		c0,0,0,0,0.1,0.1c0,0,0,0,0,0c0,0,0,0,0,0l0,0l0,0c0,0,0,0,0.1,0.1c0,0,0,0,0,0c0,0,0,0,0,0c0,0,0,0,0,0c0,0,0,0,0,0l0,0l0,0
		c0,0,0,0,0,0c0,0-0.1-0.1-0.2-0.3c0,0,0-0.1,0-0.1c0,0,0-0.1,0-0.1l0-0.1l0,0c0,0,0,0,0,0c0,0,0-0.1,0-0.1l0-0.1c0,0,0,0,0-0.1
		c0-0.1,0-0.1,0-0.2l0,0c0,0,0,0,0,0l0,0c0,0,0,0,0,0c0,0,0,0,0,0c0,0-0.1,0-0.2,0c-0.1,0-0.2,0-0.4,0c-0.3,0-0.5-0.1-0.6-0.2
		c-0.1-0.1-0.1-0.2,0-0.3c0-0.1,0.1-0.2,0.1-0.2c-0.1,0-0.2,0.1-0.2,0.2c0,0.1-0.1,0.1-0.2,0.1c0-0.1,0.1-0.2,0.1-0.2
		c-0.1,0-0.2-0.1-0.2,0c0.1,0.1,0,0.5,0,0.7l-0.3-0.1l0.1-0.2c-0.1,0-0.3,0.6-0.6,0.4c-0.5-0.2-1.2-0.3-1.8-0.6
		c0-0.1,0.2-0.2,0.4-0.2c0,0-0.1,0-0.1,0c-0.1,0-0.1,0-0.1-0.1c0,0.1,0,0.2-0.1,0.2c-0.1,0-0.2,0-0.1,0c-0.3,0.2-0.6,0.1-0.9,0
		c-0.1,0-0.2,0-0.2-0.1c-0.1,0-0.2,0-0.2,0c-0.2,0-0.3,0-0.5,0.1c-0.1,0.2-0.8,2.3-1.1,4.4c0,0.3-0.1,0.5-0.1,0.8c0,0.3,0,0.5,0,0.8
		c0,0.1,0,0.1,0,0.2l0,0l0,0l0,0v0l0,0c0,0,0-0.1,0-0.1c0,0,0-0.1,0-0.1c0-0.1,0-0.2,0-0.2c0-0.1,0-0.1,0-0.2c0,0,0,0,0,0
		c0,0,0,0,0,0c0,0,0,0,0-0.1c0-0.1,0-0.1,0-0.1c0-0.1,0-0.1,0-0.2l0,0c0,0,0,0,0,0c0,0,0,0,0-0.1c0-0.1,0-0.2,0-0.2
		c0-0.1,0-0.1,0-0.1c0,0,0,0,0-0.1c0,0,0,0,0,0c0,0,0,0,0,0l0,0l0,0l0,0l0,0l0,0l0,0l0,0c0.6,1.8-1.4-4.1,1.4,4.1
		c-2.8-8.3-0.8-2.3-1.4-4.1l0,0l0,0l0,0l0,0l0,0l0,0l0,0c0,0,0,0,0,0c0,0,0,0,0,0c0,0,0,0,0,0.1c0,0,0,0.1,0,0.1c0,0,0,0.1,0,0.2
		c0,0.1,0,0.1,0,0.2c0,0.1,0,0.1,0,0.2c0,0.1,0,0.1,0,0.2c0,0.1,0,0.1,0,0.2l0,0.1c0,0.1,0,0.1,0,0.2c0,0.1,0,0.1,0,0.2
		c0,0.1,0,0.2,0,0.2c0,0.1,0,0.2,0,0.2c0,0,0,0,0,0c0,0,0,0,0,0c0,0,0,0.1,0,0.1c0,0.1,0,0.2,0,0.3c0,0.1,0,0.1,0,0.2
		c0,0,0,0.1,0,0.1c0,0,0,0,0,0c0,0,0,0,0,0c0,0,0,0.1,0,0.1c0,0,0,0,0,0c0,0,0,0,0-0.1c0,0,0-0.1,0-0.1c0-0.1,0-0.4,0-0.6
		c0,0,0-0.1,0-0.1c0,0,0-0.1,0-0.1c0-0.1,0-0.1,0-0.2c0-0.1,0-0.3,0-0.4c0-0.1,0-0.2,0-0.3l0-0.2c0,0,0-0.1,0-0.1c0,0,0,0.1,0,0.1
		l0,0l0,0l0,0.1c0,0.1,0,0.2,0,0.3c0,0.1,0,0.2,0,0.3c0,0.1,0,0.2,0,0.3c0,0,0,0.1,0,0.1c0,0,0,0.1,0,0.1c0,0.1,0,0.1,0,0.2
		c0,0.1,0,0.2,0,0.3c0,0.1,0,0.2,0,0.3c0,0.1,0,0.2,0,0.2c0,0.3-0.1,0.5-0.1,0.5c0,0.1,0,0.1,0,0.1c0,0,0,0,0,0.1
		c0,0.1,0,0.3-0.1,0.8c0,0.1,0,0.2,0,0.2c0,0,0,0,0,0.1l0,0l0,0c0,0,0,0,0,0l0,0l0,0c0,0,0,0,0,0c0,0,0,0,0,0c0,0,0,0,0,0
		c0,0,0,0,0,0c0,0,0,0,0,0c0,0,0,0,0,0c0,0,0,0,0,0c0,0,0,0,0.1,0.1l0,0c0.2,0.3,0.6-0.3,0.9,0.1l-0.1,0.1c0,0,0.1,0.1,0.1,0.1
		c0,0,0.1,0,0.2,0c0.1,0,0.1,0,0.2,0.1c0.1,0,0.1,0.1,0.2,0.1c-0.1-0.1-0.1-0.3,0.1-0.3c0.3,0.2,0.6,0.2,0.8,0.4l0.3-0.2
		c0.1,0,0.2,0.1,0.3,0.1c0.1,0,0.2,0.1,0.4,0.1c0.3,0.1,0.6,0.1,1,0.2c0.4,0.1,0.9,0.1,1.4,0.2c0.5,0,1.1,0.1,1.7,0.1
		c0.6,0,1.4-0.1,2.1-0.3c0.7-0.2,1.5-0.4,2.2-0.8c0.1,0,0.2-0.1,0.3-0.1c0.1-0.1,0.2-0.1,0.3-0.2c0.1-0.1,0.2-0.1,0.2-0.2
		c0.1-0.1,0.2-0.1,0.2-0.2c0.1-0.1,0.2-0.1,0.2-0.2c0.1-0.1,0.1-0.1,0.2-0.2c0.1-0.1,0.1-0.1,0.2-0.2c0.1-0.1,0.1-0.1,0.2-0.2
		c0.1-0.1,0.2-0.2,0.3-0.3c0.1-0.1,0.2-0.2,0.3-0.3c0.2-0.2,0.3-0.4,0.4-0.5l0,0.1c0.1-0.1,0.1-0.2,0.2-0.3c0.1-0.1,0.1-0.2,0.2-0.3
		c0.1-0.1,0.1-0.2,0.2-0.3c0-0.1,0.1-0.1,0.1-0.2c0,0,0-0.1,0-0.1c0,0,0-0.1,0-0.1c0.1-0.2,0.2-0.4,0.3-0.6c0-0.1,0.1-0.2,0.1-0.3
		c0-0.1,0.1-0.2,0.1-0.3c0-0.1,0-0.1,0.1-0.2c0-0.1,0-0.1,0.1-0.2c0-0.1,0.1-0.2,0.1-0.3c0-0.1,0.1-0.2,0.1-0.3c0-0.1,0-0.1,0-0.2
		l0-0.1l0-0.1c0-0.1,0-0.2,0.1-0.3c0-0.1,0-0.1,0-0.2c0-0.1,0-0.1,0-0.2c0-0.1,0-0.2,0.1-0.3c0-0.1,0-0.1,0-0.2l0,0l0,0l0,0l0,0
		c0,0,0-0.1,0-0.1c0,0,0,0,0,0c0,0,0,0,0,0c0,0,0,0,0,0c0,0,0,0,0,0l0,0c0,0,0,0,0,0l0,0c0.1-0.2,0.2-0.5,0.3-0.9
		c0.2-0.7,0.5-1.4,0.7-2.2c0,0,0,0,0,0c0,0,0,0,0,0c0,0,0,0,0.1,0c0,0,0.1,0,0.1,0c0,0,0,0,0.1,0c-0.1,0-0.3-0.1-0.2-0.1
		c0-0.1,0-0.1-0.1-0.1c0,0-0.1,0-0.1-0.1c0,0,0,0,0-0.1c0,0,0,0,0,0c0,0,0,0,0,0c0,0,0,0,0,0c0-0.1,0.1-0.1,0.2-0.2c0,0,0,0,0,0l0,0
		l0.1-0.1c0,0,0.1-0.1,0.2-0.1c0.1-0.1,0.1-0.1,0.2-0.2c0.1-0.1,0.1-0.2,0.2-0.2c0,0,0.1-0.2,0.3-0.5c0.2-0.3,0.3-0.6,0.4-0.9
		c0.1-0.4,0.2-0.4,0.2-1.3c0-0.7-0.2-1.5-0.5-2.2c-0.4-0.7-0.6-0.9-0.9-1.1c-0.3-0.3-0.6-0.5-0.9-0.7c-0.4-0.2-0.6-0.3-0.5-0.2l0,0
		l0,0l0,0c-0.1,0-0.1,0-0.2-0.1c-0.1,0-0.1,0-0.2-0.1l0,0l0,0l-0.1,0c-0.1,0-0.2-0.1-0.3-0.1c-0.1,0-0.2,0-0.3-0.1c0,0-0.1,0-0.1,0
		c0,0-0.1,0-0.1,0c-0.1,0-0.2,0-0.3,0c-0.1,0-0.2,0-0.2,0c0,0-0.1,0-0.1,0l-0.1,0c-0.1,0-0.2,0-0.2,0c-0.1,0-0.1,0-0.2,0l-0.1,0
		l-0.1,0c-0.1,0-0.1,0-0.2,0c-0.1,0-0.1,0-0.2,0l-0.2,0l-0.2,0c-0.5,0-0.9,0-1.3,0.1c-0.4,0-0.7,0.1-1,0.1c-0.6,0.1-1,0.1-1.3,0.1
		c-0.2,0.2-0.5,0.3-0.7,0.3c-0.1,0-0.2,0-0.3,0.1c0,0-0.1,0-0.1,0c0,0,0,0,0,0c0,0,0,0,0,0c0,0,0,0-0.1,0l0-0.1
		c-0.1,0.1-0.7,0.1-1.4,0c-0.4,0-0.7-0.1-1.1-0.1c-0.1,0-0.2,0-0.2,0c-0.1,0-0.2,0-0.2,0c-0.1,0-0.2,0-0.3,0l0.1,0.1
		c-0.1,0-0.2,0.1-0.3,0.1c-0.1,0-0.1,0-0.2-0.1c-0.1,0-0.1-0.1-0.2-0.2c-0.1-0.1-0.1-0.1-0.3-0.1c0,0.2-0.1,0.4-0.2,0.5
		c-0.1,0.1-0.3,0.2-0.4,0.2l0-0.1c-0.1,0-0.2,0-0.3,0.1c-0.1,0-0.2,0.1-0.4,0.1c-0.3,0.1-0.6,0.2-0.8,0.2l0-0.2
		c-0.2,0.1-0.5,0.2-0.8,0.2c-0.3,0-0.6,0-0.7,0c-0.3,0-0.8-0.1-1.3-0.1c-0.5,0-1,0-1.4,0.2c-0.2-0.2-0.5-0.4-0.7-0.5l-0.1,0.1
		c0,0,0,0.5,0.1,1.2c0.1,0.7,0.2,1.8,0.4,2.8c0.2,1,0.4,2.1,0.6,3.1c0.2,0.9,0.5,1.7,0.8,2l0,0.2l0.2-0.1c0.2,0.1,0.3-0.2,0.3,0
		l-0.3,0c0.2,0,0.1,0.2,0,0.3c0.1,0,0.2,0,0.2,0.1c0-0.1,0-0.1-0.1-0.1c0.1-0.1,0.2-0.3,0.4-0.2c0.2,0,0.1,0.4,0.3,0.3
		c0.6,0,1.2,0.1,1.8,0.1c0.3,0,0.6,0.1,0.9,0.1c0.1,0,0.2,0,0.2,0c0.1,0,0.2,0,0.2,0c0.2,0,0.3,0,0.5,0c0,0.1,0,0.1-0.1,0.1
		c0.4-0.1,0.8,0,1.3-0.1c0.1,0.1,0.2,0.2,0.2,0.3c0-0.1,0.6-0.1,1.4-0.1c0.2,0,0.4,0,0.6,0c0.2,0,0.4,0,0.5,0c0.2,0,0.3,0,0.4,0
		C19,26.3,19.1,26.3,19.1,26.3z"/>
</g>
<g>
	<path class="st1" d="M13.7,23.6c-0.1,0-0.1,0.1-0.1,0.2C13.7,23.7,13.7,23.6,13.7,23.6z"/>
	<polygon class="st1" points="13.6,23.7 13.6,23.7 13.6,23.7 	"/>
	<path class="st1" d="M18.7,33.8C18.7,33.8,18.7,33.8,18.7,33.8C18.7,33.8,18.7,33.8,18.7,33.8z"/>
	<path class="st1" d="M13.4,26.6l0.2,0c0,0.1-0.2,0.1-0.1,0.2c0.2,0,0,0.2,0.1,0.2c0,0,0,0.1-0.1,0.1c0.1,0,0,0.1,0.1,0.1
		c0,0,0,0,0.1,0l0.1,0.1c0,0-0.1,0.1-0.1,0c0,0.1,0,0.2,0,0.3c0,0.1,0,0.3,0,0.4c0,0.2,0,0.3,0,0.4c0,0.1,0,0.2,0.1,0.3
		c0.1,0,0-0.1,0.2-0.2c0.1,0,0,0.1,0.1,0.1c-0.2,0.1,0,0.1-0.2,0.2l0.1,0l-0.1,0c0.2,0.2,0.1,0,0.1,0.3c0,0.1,0.2,0.2,0.2,0.2
		c0,0,0.1-0.1,0.1,0c-0.1,0,0.1,0.1,0,0.1c0,0,0,0.1,0.2,0.1c-0.1,0-0.1,0.1-0.2,0.1c0,0,0,0.1,0,0.1l0,0c0,0.1-0.1,0.2,0.1,0.2
		l0.1,0c0,0.1,0,0.1-0.1,0.2l-0.1-0.1c0,0.1,0,0.2,0.1,0.2l0,0c0.2,0.1,0.4,0.6,0.6,0.7l0.1-0.1l0.1,0.1c0,0-0.4,0-0.3,0
		c0,0.1,0.1,0.4,0.1,0.6c0,0.1,0,0.3,0,0.4c0,0.1,0,0.1,0,0.1c0,0,0,0.1,0,0.1c-0.1,0.1-0.2,0-0.2,0c0,0.1,0.1,0,0.1,0.1
		c0,0-0.1,0-0.1,0c0,0,0,0.1,0,0.1c0,0,0.2,0,0.3,0c0,0,0,0.1,0,0.1l-0.1,0c0,0,0.2,0,0.2,0.1c0,0,0,0.1,0,0.1c0,0,0,0.1,0,0.1
		c0,0.1,0,0.1,0,0.2c-0.1,0-0.1,0-0.1-0.1c0,0,0,0,0,0.1c0.1,0,0.1,0.1,0.1,0c0.1,0,0.1,0.1,0.1,0.2c0,0,0,0.1,0,0.1
		c0.1,0,0.9,0.2,1.8,0.3c0.8,0.2,1.7,0.4,1.8,0.4c0,0,0,0.1,0,0.1c0.1,0,0.1-0.1,0.1-0.1l-0.1,0c0-0.1,0.1,0,0.1-0.1
		c0.1,0,0.1,0.1,0.1,0.2c0-0.1,0.1-0.1,0-0.2c0.1-0.1,0.1,0,0.2-0.1c0-0.1-0.1-0.2,0-0.2l0,0c0.1-0.2-0.1-0.3,0-0.4l0,0
		c0,0,0-0.1,0-0.1c0,0,0-0.1,0-0.1c0,0-0.1,0-0.1,0c0.1-0.1,0-0.2,0.1-0.3l-0.1-0.1c0-0.2,0-0.6-0.1-1c-0.1-0.4-0.2-0.8-0.2-0.9l0,0
		c0-0.1-0.1-0.3-0.1-0.4c0-0.2-0.1-0.3-0.1-0.5c-0.1-0.3-0.2-0.7-0.3-0.9c0.1-0.1,0-0.2,0.1-0.3c0,0-0.1,0-0.1,0
		c0-0.2-0.1,0-0.2-0.2c-0.1-0.1-0.1-0.4-0.1-0.7c0-0.3,0-0.6,0-0.7c-0.2-0.1-0.1-0.3-0.2-0.4l0,0c0,0,0-0.1,0-0.2c0-0.1,0-0.2,0-0.3
		c0-0.1,0-0.2,0-0.3c0-0.1,0-0.1,0-0.2l0,0c-0.1-0.1,0.1-0.1,0.1-0.2c-0.2,0-0.3-0.1-0.3-0.1l0,0c0-0.1-0.2-0.2-0.2-0.3l0.1,0
		c-0.1-0.1-0.1-0.2-0.1-0.3c0-0.1,0.1-0.1,0.1-0.2c0-0.1,0-0.2,0-0.2c0.1,0,0.2,0,0.3-0.1l0,0c0,0-0.2,0-0.5-0.1
		c-0.3,0-0.7-0.1-1.1-0.2c-0.4-0.1-0.9-0.1-1.2-0.1c-0.4,0-0.7,0-0.9,0.1l-0.1,0l0,0.1c-0.1,0.1,0,0.1,0,0.1l0-0.1
		c0,0.1-0.1,0-0.1,0c0,0,0,0.1-0.1,0.1c0,0,0,0,0.1,0c0,0,0.1,0.1,0.1,0.2c0,0.1-0.1,0-0.2,0.1c-0.1,0.5-0.2,1-0.1,1.4
		c0,0,0,0-0.1,0c0,0.1,0,0.3,0.1,0.4c0,0-0.1,0.1-0.1,0.1c0,0,0.1,0.2,0.1,0.3C13.4,26.4,13.4,26.6,13.4,26.6z"/>
</g>
<g>
	<g>
		<path class="st1" d="M16.8,2c-0.2,0-0.3,0.1-0.4,0.2C16.6,2.2,16.7,2.2,16.8,2z"/>
		<polygon class="st1" points="16.3,2.2 16.3,2.2 16.3,2.2 		"/>
		<path class="st1" d="M30.3,9.7c-0.1,0-0.1,0-0.2,0C30.1,9.7,30.2,9.7,30.3,9.7z"/>
		<path class="st1" d="M7.4,12.1l0.4,0c-0.2,0.3-0.3,0.3-0.5,0.4c-0.1,0.1-0.3,0.1-0.4,0.4c0.1,0,0.2,0.1,0.1,0.2
			c0,0.1-0.1,0.2-0.2,0.3c-0.2,0.2-0.4,0.5-0.3,0.5c0,0-0.2,0.3-0.4,0.3c0.2,0,0.1,0.1,0.1,0.1c-0.1,0.1-0.2,0.2-0.2,0.3
			c0.1,0,0.1-0.1,0.3-0.2l-0.1,0.3c-0.2,0.2-0.4,0.3-0.4,0.1c-0.4,0.5-1.3,2-2.3,3.6c-0.5,0.8-1,1.6-1.4,2.2
			c-0.1,0.2-0.2,0.3-0.3,0.5C2,21.2,2,21.3,1.9,21.4c-0.1,0.2-0.2,0.4-0.2,0.5c0.2-0.2,0.3-0.3,0.4-0.4c0.1-0.1,0.2-0.3,0.5-0.5
			c0.1,0,0,0.1,0,0.2c-0.1,0.1-0.1,0.1,0,0.1c-0.4,0.3-0.6,0.5-0.7,0.6c0,0-0.1,0.1-0.1,0.1c0,0,0,0.1-0.1,0.1c0,0-0.1,0.1-0.1,0.1
			c-0.1,0.1-0.3,0.3-0.6,0.5c0,0,0,0,0,0l0.7-0.4c0,0.1-0.1,0.1-0.1,0.2c0.6-0.2,0.9-0.2,1.1-0.3C2.9,22.1,3,22.1,3,22.1
			c0.1,0,0,0.1,0.8,0c0.5-0.1,1-0.3,1.4-0.4c0.4-0.1,0.7-0.2,0.9-0.2c-0.1,0,0-0.2,0.3-0.3c-0.2,0.1,0.1,0.1,0.3,0
			c0.2-0.1,0.5-0.1,0.3,0c0.1,0,0.4-0.1,0.6-0.1c0.2-0.1,0.5-0.2,0.6-0.3c-0.1,0.1,0.1,0.1,0.1,0.2c0.1,0,0,0.1-0.2,0.2
			c0.2,0,0.4,0,0.6-0.1l-0.2-0.1c0.4-0.1,0.6-0.1,0.8-0.1c0.2,0,0.5-0.1,0.9-0.3c0,0-0.1-0.1-0.1-0.1c0.5-0.1,0.8-0.2,0.7,0.2
			l-0.6,0.2c0.4-0.1,0.7-0.1,1-0.2c0.3-0.1,0.6-0.2,1-0.3l-0.2,0c0.3-0.1,0.7-0.3,1.3-0.4c0.6-0.2,1.2-0.3,1.8-0.5
			c0.6-0.2,1.2-0.3,1.7-0.5c0.5-0.2,0.9-0.3,1.1-0.4c-0.1-0.1-0.1-0.1-0.2-0.2l0.6-0.3c0,0-0.2,0.2-0.3,0.4
			c-0.1,0.2-0.3,0.4-0.3,0.4c0.2,0,0.4-0.1,0.7-0.1c0.3,0,0.6-0.1,1-0.2c0.4-0.1,0.8-0.1,1.3-0.2c0.2,0,0.4-0.1,0.7-0.1
			c0.2,0,0.5-0.1,0.7-0.1c0.3,0,0.7-0.1,1-0.1c0.2,0,0.5-0.1,0.7-0.1c0.4,0,0.8-0.1,0.9,0c0.3,0.1,0.1,0.4,0.1,0.4
			c0.3-0.1,0.1-0.3,0.4-0.3c0.1,0,0,0.2,0,0.2c0.1,0,0.2,0,0.2-0.1c-0.1-0.1-0.1-0.4-0.2-0.5l0.3,0l0,0.2c0.1,0,0.2-0.5,0.5-0.4
			c0.3,0,0.6,0,0.8,0c0.3,0,0.6,0,0.8,0c0,0.1-0.1,0.2-0.2,0.2c0.1,0,0.2,0,0.2,0c-0.1-0.2,0.2-0.1,0.1-0.2c0.2-0.2,0.4-0.2,0.6-0.2
			c0.2,0,0.4,0,0.6-0.1c0-0.2,0.2-1.9,0.5-3.6c0.2-1.7,0.5-3.4,0.6-3.6c0.1,0,0.3,0,0.3,0.1c0-0.1-0.3-0.2-0.4-0.1l0,0.2
			c-0.3,0.1-0.1-0.2-0.4-0.1c0-0.2,0.3-0.2,0.5-0.3c-0.2,0-0.5-0.2-0.6,0c-0.2-0.1,0-0.2-0.2-0.3c-0.1,0-0.2,0.1-0.3,0.1
			c-0.1,0-0.2,0.1-0.3,0l0,0c-0.3-0.1-0.5,0-0.6,0.1c0,0-0.1,0-0.1,0.1c0,0-0.1,0-0.1,0c-0.1,0-0.2,0-0.3,0l0-0.1
			c-0.2-0.1-0.5,0.1-0.8-0.1c0.1,0,0.2,0.2,0,0.2c0,0-0.1,0-0.1,0c0,0-0.1,0-0.1,0c-0.1,0-0.1,0-0.2,0c-0.1,0-0.2,0-0.4-0.1
			l-0.2,0.2c-0.1,0-0.3,0-0.6,0c-0.2,0-0.5,0.1-0.8,0.1c-0.1,0-0.3,0-0.5,0.1c-0.2,0-0.3,0-0.5,0.1c-0.3,0-0.7,0.1-1,0.1
			c-0.2,0-0.3,0.1-0.5,0.1l0,0c0,0,0,0,0,0l0,0l0,0l0,0c0,0-0.1,0-0.1,0.1c-0.1,0-0.1,0.1-0.2,0.1l0,0c-0.1,0.1-0.3,0.1-0.5,0.2
			c-0.2,0.1-0.5,0.2-0.9,0.4c0.1-0.1,0.2-0.2,0.2-0.2c0,0,0,0,0-0.1C20.3,10.8,20,11,20,11c-0.1,0-0.1,0-0.2,0.1
			c-0.1,0.1-0.2,0.1-0.4,0.2c0,0,0,0,0,0c-0.2,0.1-0.3,0.1-0.4,0.1l0,0l0,0c0,0,0,0,0,0l0,0l0,0c0,0,0,0,0,0c0,0,0-0.1,0.1-0.1
			c0-0.1,0.1-0.1,0.2-0.2c0.1-0.1,0.3-0.3,0.4-0.4c0.1-0.1,0.3-0.2,0.4-0.3c-0.3,0.1-0.2,0-0.2,0c0,0,0.1-0.1-0.1-0.1l0.1,0
			c-0.1,0,0.1-0.2,0.3-0.3c0.2-0.1,0.4-0.2,0.4-0.3l-0.1,0c-0.1-0.1,0-0.1,0.1-0.1c0.1,0,0.2,0,0.3,0c-0.2,0-0.3-0.1-0.4-0.1
			c-0.1,0-0.1-0.1-0.1-0.1l0.1,0c0,0-0.1-0.1-0.1-0.2c0-0.1-0.1-0.2,0-0.3L20.4,9c0,0,0-0.1,0-0.1c0,0,0,0,0-0.1c0,0,0,0,0-0.1
			c0,0,0,0,0,0l0,0c0,0,0,0,0,0c0,0,0.1-0.1,0.1-0.1c0.1-0.1,0.1-0.2,0.2-0.2c0.1-0.1,0.2-0.2,0.4-0.3c0.1-0.1,0.3-0.3,0.4-0.4
			c0.1-0.1,0.3-0.3,0.4-0.5c0.1-0.1,0.1-0.2,0.2-0.3c0-0.1,0.1-0.2,0.1-0.3c0.2,0,0.5-0.1,0.7-0.1l0-0.1c0,0-0.3-0.3-0.7-0.6
			c-0.5-0.4-1.1-0.9-1.8-1.4c-0.7-0.5-1.4-1-2.1-1.4c-0.7-0.4-1.3-0.6-1.6-0.6l-0.1-0.1c0,0.1,0,0.1-0.1,0.1
			c-0.2,0.1-0.1,0.3-0.2,0.2l0.2-0.2c-0.2,0.1-0.2,0-0.2-0.2c-0.1,0.1-0.1,0.1-0.2,0.1c0,0.1,0.1,0,0.1,0c0,0.1,0,0.3-0.1,0.4
			c-0.1,0.2-0.2-0.2-0.4,0c-0.1,0.1-0.2,0.2-0.3,0.3c-0.1,0.1-0.2,0.2-0.3,0.3c-0.1,0.1-0.2,0.2-0.3,0.3l-0.1,0.1l0,0L14.6,4
			c-0.1,0.1-0.2,0.2-0.3,0.4c-0.2,0.2-0.5,0.5-0.7,0.7c-0.3,0.2-0.5,0.5-0.8,0.7c-0.3,0.2-0.5,0.5-0.8,0.7c-0.3,0.2-0.5,0.5-0.8,0.8
			c-0.1,0-0.1,0-0.1,0c0,0,0,0,0-0.1c0,0,0,0-0.1,0.1c0,0,0,0,0,0.1c0,0-0.1,0.1-0.1,0.1c-0.1,0.1-0.1,0.2-0.2,0.2
			c-0.1,0.1-0.1,0.2-0.2,0.2c-0.1,0.1-0.1,0.1-0.2,0.2c-0.1,0.1-0.2,0.3-0.3,0.4C10,8.6,9.9,8.7,9.9,8.8c0,0,0,0.1-0.1,0.1L9.7,9
			C9.5,9.1,9.3,9.2,9.2,9.2c0,0,0,0,0,0.1c0,0,0,0.1-0.1,0.1c0,0,0,0.1-0.1,0.1c0,0,0,0.1-0.1,0.1c-0.1,0.1-0.2,0.3-0.3,0.5
			c0,0-0.1,0.1-0.1,0.1c0,0-0.1,0.1-0.1,0.1c-0.1,0.1-0.1,0.2-0.2,0.3c-0.1,0.1-0.1,0.2-0.2,0.3C8.2,11,8.1,11,8.1,11.1
			c-0.1,0.2-0.2,0.3-0.3,0.5C7.6,11.8,7.5,12,7.4,12.1z"/>
	</g>
	<g>
		<path class="st1" d="M17.1,8.4c-0.1,0.2,0,0.2,0,0.3C17.2,8.5,17.2,8.4,17.1,8.4z"/>
		<polygon class="st1" points="17.1,8.7 17.1,8.7 17.1,8.7 		"/>
		<path class="st1" d="M17.6,14.7C17.6,14.7,17.6,14.7,17.6,14.7C17.6,14.7,17.6,14.6,17.6,14.7z"/>
		<path class="st1" d="M19.2,10.9l0.2-0.3c0.1,0.1-0.2,0.3,0,0.3c0.3-0.3,0.2,0.2,0.3,0c0,0,0,0.1-0.1,0.2c0.2-0.2,0.1,0,0.2,0
			c0.1,0,0-0.1,0.1-0.1c0,0,0.1,0,0.1,0c0,0.1-0.1,0.2-0.1,0.2c0,0.1,0.1,0.1,0.2,0.2c0.1,0.1,0.1,0.2,0.2,0.3c0,0.1,0,0.1,0,0.1
			c0,0,0,0,0,0l0,0l0,0l0,0l0,0c0,0,0,0,0.1,0c0,0,0.1-0.1,0.1-0.1c0.2-0.2,0.4-0.4,0.6-0.6c0.1-0.1,0.2-0.2,0.4-0.3
			c0.1-0.1,0.2-0.2,0.3-0.2c0.1-0.1,0.1-0.1,0.2-0.2c0.1,0,0.1-0.1,0.2-0.1c0,0,0.1-0.1,0.1-0.1c0,0,0.1-0.1,0.1-0.1
			c0,0,0.1,0,0.1-0.1c0,0,0.1,0,0.1-0.1c0,0-0.1,0-0.1,0.1c0,0-0.1,0.1-0.1,0.1c0,0-0.1,0.1-0.2,0.1c-0.1,0.1-0.1,0.1-0.2,0.2
			c-0.1,0.1-0.1,0.1-0.2,0.2c-0.1,0.1-0.2,0.2-0.3,0.2c-0.2,0.2-0.4,0.3-0.5,0.5c0.2-0.1,0.3-0.3,0.4-0.4c0.1-0.1,0.2-0.2,0.3-0.2
			c0.1-0.1,0.1-0.1,0.2-0.2c0.1,0,0.1-0.1,0.2-0.1c0.1-0.1,0.1-0.1,0.2-0.2c0.1,0,0.1-0.1,0.2-0.1c0,0,0.1,0,0.1-0.1
			c0,0,0.1-0.1,0.1-0.1c0.1-0.1,0.2-0.1,0.2-0.2c0.1-0.1,0.3-0.2,0.3-0.2l0,0c0,0,0,0,0.1,0c0,0,0,0,0,0c0,0,0,0,0,0c0,0,0,0,0,0
			c0,0,0,0,0,0l0,0l0,0l0,0c0,0,0,0,0,0c0,0,0,0,0,0c0,0,0,0,0,0c0,0,0,0-0.1,0c0,0-0.1,0-0.1,0c0,0-0.1,0-0.1,0c0,0,0,0,0,0
			c0,0,0,0,0,0c0,0,0,0,0,0c0,0,0,0,0,0c0,0,0,0,0,0c0,0,0,0,0,0c0,0,0,0,0,0c0,0,0,0,0,0c0,0,0,0,0,0l0,0l0,0l0,0l0,0l0,0l0,0
			c-0.1-0.1,0.1,0.1-0.1-0.1l0,0l0,0l0,0c0,0,0,0,0,0c0,0,0,0,0,0c0,0,0,0,0,0l0,0c0,0,0,0,0,0c0,0,0,0,0,0c0,0,0,0,0,0c0,0,0,0,0,0
			c0,0,0,0,0,0c0,0,0,0.1,0.1,0.1c0,0,0,0,0,0c0,0,0,0,0,0c0,0,0-0.1-0.1-0.1c0,0,0,0,0,0c0,0,0,0,0-0.1c0,0,0-0.1-0.1-0.1
			c0,0,0,0,0,0.1c0,0,0-0.1-0.1-0.1c0,0,0-0.1,0-0.1c0,0,0-0.1-0.1-0.1c-0.1-0.2-0.2-0.4-0.3-0.7l0-0.1c0-0.1-0.1-0.3-0.1-0.4
			c0,0,0,0,0,0.1c0,0,0,0.1,0,0.1c0,0.1,0,0.2,0,0.3c0,0.1,0,0.1,0.1,0.2c0,0.1,0,0.1,0,0.2c0,0,0,0,0,0c0,0,0,0,0-0.1
			c0-0.1,0-0.2,0-0.2c0-0.2-0.1-0.3,0-0.3c0,0,0,0,0,0c0,0,0,0,0,0c0,0,0,0,0,0c0,0,0,0-0.1,0c0,0-0.1,0-0.1,0c-0.1,0-0.3,0-0.4-0.1
			c0-0.1,0-0.4,0.1-0.4c-0.1,0.1-0.1,0.2-0.1,0.2c0,0,0-0.2,0-0.2c0,0,0-0.1-0.1,0c0,0.1,0,0.4-0.1,0.5l-0.1,0l0-0.2
			c0,0-0.1,0.5-0.2,0.4c-0.1-0.1-0.1-0.1-0.2-0.1c0,0-0.1,0-0.1,0c0,0-0.1,0-0.1,0c0-0.1,0.1-0.2,0.1-0.2c0,0-0.1,0-0.1-0.1
			c0,0.2-0.1,0.1-0.1,0.2c-0.1,0.2-0.2,0.2-0.3,0.2c-0.1,0-0.1-0.1-0.2,0.1c-0.1,0.2-0.6,1.8-1.1,3.4c-0.5,1.6-1.1,3.2-1.2,3.4
			c0,0-0.1,0-0.1-0.1c0,0.1,0,0.2,0.1,0.1l0.1-0.2c0.1-0.1,0,0.1,0.1,0.2c-0.1,0.2-0.2,0.2-0.2,0.2c0.1,0,0.1,0.2,0.2,0
			c0,0.1-0.1,0.2,0,0.3c0.1,0,0.2-0.2,0.3-0.1l0,0c0.1,0.3,0.4-0.2,0.5,0l0,0.1c0,0.1,0.2,0,0.3,0.2c0,0,0-0.2,0.1-0.2
			c0.1,0.2,0.2,0.1,0.3,0.2l0.1-0.2c0.1,0,0.1,0,0.3,0.1c0.1,0,0.1,0,0.2,0c0,0,0.1,0,0.1,0c0,0,0.1,0,0.1,0c0.1,0,0.2,0,0.2,0
			c0.1,0,0.2,0,0.3,0c0,0,0.1,0,0.1,0c0,0,0.1,0,0.1,0c0.1,0,0.2,0,0.3,0c0.1,0,0.2,0,0.3,0c0.1,0,0.2,0,0.3,0c0.1,0,0.2,0,0.3,0
			c0,0,0.1,0,0.1,0c0,0,0.1,0,0.1,0c0.4,0,0.7-0.1,0.9-0.1l0,0c0.1,0,0.3-0.1,0.5-0.1c0.2,0,0.4-0.1,0.6-0.2
			c0.4-0.1,0.9-0.3,1.5-0.7c0.3-0.2,0.6-0.4,0.9-0.7c0,0,0.1-0.1,0.1-0.1c0,0,0.1-0.1,0.1-0.1c0.1-0.1,0.1-0.2,0.2-0.2
			c0.1-0.1,0.1-0.2,0.2-0.3c0.1-0.1,0.1-0.2,0.2-0.3c0.2-0.4,0.4-0.7,0.5-1.1c0.1-0.4,0.2-0.7,0.2-1.1c0.1-0.1,0.1-0.2,0.1-0.3
			c0-0.1,0-0.1,0-0.2c0-0.1,0-0.1,0-0.2c0-0.1,0-0.1,0-0.2c0-0.1,0-0.1,0-0.2c0-0.1,0-0.3,0-0.4c0,0.2-0.1,0.2-0.1,0.2
			c0,0-0.1-0.1-0.1-0.2c0-0.2-0.1-0.4-0.1-0.5c0-0.1-0.1-0.2-0.1-0.2c-0.1-0.1-0.1-0.1-0.1-0.1c0,0-0.1,0-0.1-0.1
			c-0.1-0.1-0.2-0.3-0.3-0.5c-0.1-0.1-0.2-0.3-0.4-0.5c-0.1-0.2-0.3-0.3-0.4-0.4c-0.2-0.2-0.4-0.5-0.7-0.7c-0.2-0.2-0.4-0.4-0.5-0.6
			c-0.1-0.2-0.2-0.3-0.3-0.4c-0.3,0.1-0.3-0.2-0.6-0.1l0.1,0c-0.2,0-0.8-0.8-1-0.8l0,0c-0.2,0,0-0.2-0.1-0.4
			c-0.2,0.3-0.4,0.3-0.5,0.3l0-0.1c-0.1,0-0.4,0.1-0.6,0.1l0.1-0.1c-0.2,0.1-0.3-0.1-0.4-0.1C22,3.1,22,2.7,21.6,2.8l0.2-0.5l0,0
			c0,0-3.9,4.8-4.4,6l-0.1,0.1l0.1,0c0,0.1,0.2,0,0.1,0.1l-0.1-0.1c0,0.1-0.1,0.1-0.2,0.2c0,0,0,0.1,0,0.1c0.1,0,0-0.1,0-0.1
			c0.1,0,0.2-0.1,0.2,0c0.1,0.1-0.2,0.2-0.1,0.3c0.3,0.4,0.6,0.9,1,1.1c0,0.1,0,0.1-0.1,0.1c0.2,0,0.3,0.1,0.4,0.2
			c0,0.1-0.1,0.2-0.1,0.2C18.6,10.4,19.3,10.9,19.2,10.9z"/>
	</g>
	<g>
		<g>
			<path class="st2" d="M17.9,9.2"/>
		</g>
	</g>
	<g>
		<path class="st1" d="M15.3,6c-0.2,0-0.2,0-0.2,0C15.2,6,15.3,6,15.3,6z"/>
		<polygon class="st1" points="15,6 15,6 15,6 		"/>
		<path class="st1" d="M22.3,11.7C22.3,11.7,22.3,11.7,22.3,11.7C22.3,11.7,22.3,11.7,22.3,11.7z"/>
		<path class="st1" d="M14.3,6.6l0.3,0.1C14.6,6.7,14.2,6.6,14.3,6.6c0.4,0.2,0,0.1,0.2,0.2c0,0-0.1,0-0.2,0c0.2,0.1,0,0,0.1,0.1
			c0.1,0,0.1,0,0.1,0l0.1,0.1c-0.1,0-0.2-0.1-0.2-0.1c-0.1,0-0.4,0.3-0.3,0.4c0.2,0,0.1,0,0.4,0.1c0.2,0.1-0.1,0,0.1,0.1
			c-0.4-0.1-0.1,0-0.5-0.1l0.2,0.1l-0.1,0c0.2,0.2,0.1,0.1,0,0.1c0,0.1,0.3,0.2,0.2,0.2c0,0,0.2,0,0.2,0.1c-0.2-0.1,0.1,0.1-0.1,0
			c0,0,0,0,0.3,0.1c-0.1,0-0.2,0-0.3-0.1c0,0-0.1,0,0,0l0.1,0c0,0-0.2,0,0.1,0.1l0.1,0c0,0,0,0.1-0.3,0l-0.1,0c0,0,0,0.1,0.1,0.1
			l0,0c0.3,0.1,0.4,0.4,0.8,0.5l0.2,0.1l0.2,0.1c0,0-0.7-0.2-0.6-0.2c0,0.1,0.1,0.5-0.1,0.5c-0.1,0-0.3-0.1-0.4-0.1
			c0.1,0.1,0.2,0.1,0.2,0.1c0,0-0.2-0.1-0.2-0.1c0,0-0.1,0,0,0c0.1,0,0.4,0.1,0.5,0.1l0,0l-0.2-0.1c0,0,0.5,0.2,0.4,0.2
			c-0.1,0,0,0.1-0.1,0.1c-0.1,0-0.2-0.1-0.2-0.1c0,0,0,0-0.1,0c0.2,0,0.1,0.1,0.2,0.1c0.4,0.2,0,0.1,0.3,0.2
			c0.4,0.1,6.4,2.1,6.9,2.2c0,0,0,0-0.1,0c0.1,0,0.2,0,0.1,0L22,11.6c-0.1-0.1,0.1,0,0.1,0c0.2,0.1,0.2,0.1,0.2,0.1c0,0,0.2,0,0-0.1
			c0.1,0,0.2,0.1,0.3,0.1c-0.1,0-0.2-0.1-0.1-0.1l0,0c0.2,0-0.3-0.2-0.1-0.1l0.1,0c0.1,0,0-0.1,0.1,0c0,0-0.2,0-0.2-0.1
			c0.1,0,0,0,0.2,0l-0.2-0.1c0.1-0.1-0.1-0.5-0.1-0.7l0,0c0-0.2,0.1-0.5-0.2-0.7c0.2,0,0.2,0,0.2,0c-0.1,0-0.2-0.1-0.2-0.1
			c0-0.1-0.1,0-0.2-0.1c-0.1-0.1,0.2-0.4,0.3-0.4c-0.3-0.1,0-0.1-0.2-0.2l0.1,0c-0.1-0.1,0.2-0.2,0.2-0.3l0,0c-0.2-0.1,0.1,0,0.2,0
			c-0.3-0.1-0.5-0.2-0.5-0.2l0.1,0c0,0-0.3-0.2-0.3-0.2L22,8.5c-0.2-0.1-0.1-0.1-0.1-0.1c0.1,0,0.4,0,0.2-0.1l0.5,0.1l0,0
			c0,0-5.8-1.9-7.1-2.2L15.3,6l0,0c-0.1,0,0.1,0.1-0.1,0l0,0C15.2,6,15.1,6,15,6c0,0,0,0-0.1,0C15,6,15,6,15.1,6
			c0.1,0,0.2,0.1,0.1,0.1c0,0-0.3-0.1-0.3-0.1c-0.2,0.1-0.4,0.2-0.4,0.3c-0.1,0-0.1,0-0.1,0c0.1,0.1,0,0.1,0.1,0.1
			c-0.1,0-0.2,0-0.3-0.1C14.3,6.4,14.3,6.6,14.3,6.6z"/>
	</g>
	<g>
		<path class="st1" d="M16.8,5c-0.2-0.1-0.2-0.1-0.2,0C16.7,5,16.8,5,16.8,5z"/>
		<polygon class="st1" points="16.5,4.9 16.5,4.9 16.5,4.9 		"/>
		<path class="st1" d="M20.9,14.1C20.9,14.1,20.9,14.1,20.9,14.1C20.9,14.1,20.9,14.1,20.9,14.1z"/>
		<path class="st1" d="M15.6,5.6l0.3,0.2C15.8,5.8,15.5,5.6,15.6,5.6c0.4,0.3-0.1,0.1,0.1,0.2c0,0-0.1,0-0.2-0.1
			c0.2,0.1,0,0,0.1,0.1c0.1,0,0.1,0,0.1,0.1L15.8,6c-0.1,0-0.2-0.1-0.2-0.1c-0.1,0-0.2,0.1-0.3,0.2c-0.1,0.1-0.2,0.2-0.2,0.2
			c0.2,0.1,0.1,0,0.3,0.1c0.1,0.1-0.1,0,0.1,0.1c-0.4-0.2-0.1,0-0.5-0.2l0.2,0.1l-0.1-0.1c0.2,0.2,0.1,0.1,0,0.1
			c0,0.1,0.3,0.3,0.2,0.2c0,0,0.1,0.1,0.2,0.1c-0.2-0.1,0.1,0.1-0.1,0c0,0,0,0.1,0.2,0.2C15.4,7,15.3,7,15.2,6.9c0,0-0.1,0,0,0
			l0.1,0c0,0.1-0.2,0,0,0.1l0.1,0.1c0,0,0,0.1-0.2-0.1L15.1,7c0,0,0,0.1,0.1,0.2l0,0c0.2,0.2,0.3,0.6,0.5,0.8L16,8.1l0.1,0.1
			c0,0,0,0,0,0c0,0,0,0-0.1-0.1c-0.1,0-0.1-0.1-0.2-0.1c-0.1-0.1-0.3-0.2-0.2-0.2c0,0.1-0.2,0.6-0.3,0.5c-0.1-0.1-0.3-0.2-0.3-0.2
			c0,0.1,0.2,0.2,0.1,0.2c0,0-0.1-0.1-0.2-0.1c0,0-0.1,0,0,0.1c0.1,0,0.3,0.2,0.4,0.3l0,0l-0.1-0.1c0,0,0.4,0.3,0.3,0.3
			c-0.1,0-0.1,0.1-0.2,0.1c-0.1-0.1-0.1-0.1-0.2-0.2c0,0,0,0-0.1,0c0.2,0.1,0.1,0.1,0.1,0.1c0.3,0.3-0.1,0.1,0.1,0.3
			c0.1,0.1,1.4,1.2,2.7,2.3c1.3,1.1,2.6,2.2,2.7,2.4c0,0,0,0-0.1,0c0.1,0.1,0.2,0.1,0.1,0l-0.2-0.2c0-0.1,0.1,0.1,0.1,0
			c0.2,0.1,0.2,0.2,0.1,0.2c0,0,0.2,0.1,0-0.1c0.1,0,0.2,0.2,0.3,0.2c0-0.1-0.2-0.2,0-0.2l0,0c0.2,0.1-0.2-0.3,0.1-0.2l0,0
			c0.1,0.1,0-0.1,0.1,0c0,0-0.2-0.1-0.2-0.1c0.1,0,0.1-0.1,0.2,0l-0.1-0.2c0.1-0.1,0.2-0.3,0.3-0.5c0.1-0.2,0.2-0.5,0.2-0.6l0,0
			c0-0.2,0.2-0.4,0.3-0.6c0-0.1,0.1-0.2,0.1-0.3c0-0.1,0-0.2,0-0.3c0.2,0.1,0.2,0,0.3,0c-0.1,0-0.2-0.1-0.2-0.1
			c0.1-0.1-0.1-0.1-0.1-0.3c0-0.1,0.1-0.3,0.2-0.4c0.1-0.2,0.3-0.3,0.4-0.3c-0.2-0.2,0-0.2-0.1-0.4l0.1,0c0-0.1,0.1-0.2,0.2-0.3
			c0.1-0.1,0.2-0.2,0.2-0.3l0,0c-0.1-0.2,0.2,0,0.3,0C23.2,9,23,8.8,23,8.8l0.1,0c0-0.1-0.2-0.3-0.3-0.4L23,8.5
			c-0.1-0.1,0-0.2,0-0.2c0.1-0.1,0.5-0.1,0.3-0.3l0.5,0.1l0,0c0,0-1.4-0.7-2.9-1.4c-1.5-0.7-3.3-1.4-3.9-1.7L16.8,5l0,0
			c-0.1,0,0.1,0.1-0.1,0l0,0c-0.1,0-0.1-0.1-0.2-0.1c0,0,0,0-0.1,0c0.1,0,0.1,0,0.1,0c0.1,0,0.2,0.1,0.1,0.1c0,0-0.3-0.1-0.3-0.1
			c-0.2,0.1-0.5,0.2-0.5,0.3c-0.1,0-0.1,0-0.1-0.1c0,0.1,0,0.1,0.1,0.2c-0.1,0-0.2-0.1-0.2-0.1C15.7,5.4,15.6,5.6,15.6,5.6z"/>
	</g>
	<g>
		<path class="st1" d="M14.6,7.4c-0.2-0.1-0.2-0.1-0.2-0.1C14.6,7.4,14.6,7.4,14.6,7.4z"/>
		<polygon class="st1" points="14.4,7.3 14.4,7.3 14.4,7.3 		"/>
		<path class="st1" d="M18.3,15.8C18.3,15.8,18.3,15.8,18.3,15.8C18.3,15.8,18.3,15.8,18.3,15.8z"/>
		<path class="st1" d="M13.5,7.5l0.3,0.2C13.8,7.7,13.5,7.4,13.5,7.5c0.3,0.3-0.1,0.1,0.1,0.2c0,0,0,0-0.2-0.1c0.2,0.2,0,0,0.1,0.1
			c0.1,0,0.1,0,0.1,0.1l0.1,0.1c-0.1,0-0.2-0.1-0.2-0.2c-0.1,0-0.5,0-0.4,0.2c0.1,0.1,0.1,0,0.3,0.2c0.1,0.1-0.1,0,0.1,0.1
			c-0.3-0.3-0.1,0-0.4-0.3L13.3,8l-0.1-0.1c0.1,0.2,0.1,0.1,0,0.1c0,0.1,0.2,0.3,0.1,0.2c0,0,0,0,0.1,0.1c0,0,0.1,0.1,0.1,0.1
			c-0.2-0.1,0.1,0.1-0.1,0c0,0,0,0,0.2,0.2c-0.1-0.1-0.2-0.1-0.3-0.2c0,0-0.1,0,0,0l0.1,0c0,0.1-0.2-0.1,0,0.1l0.1,0.1
			c0,0,0,0.1-0.2-0.1l-0.1-0.1c0,0,0,0.1,0.1,0.2l0,0c0.2,0.2,0.2,0.5,0.5,0.8L14,9.5l0.1,0.2c0,0,0,0,0,0c0,0,0,0-0.1-0.1
			c0,0-0.1-0.1-0.2-0.2c-0.1-0.1-0.2-0.2-0.2-0.2c0,0.1-0.1,0.4-0.3,0.3c-0.1-0.1-0.3-0.3-0.3-0.3c0,0.1,0.2,0.2,0.1,0.2
			c0,0-0.1-0.1-0.1-0.2c0,0,0,0,0,0.1c0.1,0.1,0.3,0.3,0.4,0.4l0,0l-0.1-0.1c0,0,0.3,0.4,0.2,0.3c-0.1,0-0.1,0.1-0.2,0.1
			c-0.1-0.1-0.1-0.1-0.1-0.2c0,0,0,0-0.1,0c0.1,0.1,0.1,0.1,0.1,0.2c0.3,0.3,0,0.1,0.1,0.3c0.1,0.1,1.2,1.4,2.3,2.7
			c1.1,1.3,2.2,2.6,2.4,2.8c0,0,0,0-0.1,0c0.1,0.1,0.1,0.1,0.1,0l-0.2-0.2c0-0.1,0.1,0.1,0.1,0.1c0.1,0.2,0.1,0.2,0.1,0.2
			c0,0,0.2,0.1,0-0.1c0.1,0,0.2,0.2,0.2,0.2c0-0.1-0.1-0.2,0-0.2l0,0c0.2,0.1-0.1-0.3,0-0.2l0,0.1c0.1,0.1,0-0.1,0.1,0
			c0,0-0.1-0.1-0.1-0.2c0.1,0.1,0.1,0,0.2,0l-0.1-0.2c0.1,0,0.2-0.2,0.2-0.4c0.1-0.2,0.1-0.4,0.2-0.4l0,0c0.1-0.2,0.4-0.5,0.3-0.9
			c0.2,0.1,0.2,0,0.2,0c-0.1,0-0.2-0.1-0.2-0.1c0.1-0.1-0.1-0.1-0.1-0.2c0-0.1,0.1-0.2,0.2-0.3c0.1-0.1,0.3-0.1,0.4-0.1
			c-0.2-0.2,0-0.2-0.1-0.3l0,0c0-0.1,0.4-0.2,0.3-0.4l0,0c-0.1-0.2,0.1,0,0.3,0.1c-0.3-0.2-0.4-0.3-0.4-0.4l0.1,0
			c0-0.1-0.2-0.3-0.2-0.3l0.1,0.1c-0.1-0.1,0-0.2,0-0.2c0.1,0,0.4,0.1,0.3-0.1l0.5,0.2l0,0c0,0-1.2-0.9-2.6-1.9
			c-1.4-1-2.9-2-3.5-2.4l-0.1-0.1l0,0c-0.1,0,0.1,0.1-0.1,0l0,0c-0.1,0-0.1-0.1-0.2-0.1c0,0,0,0-0.1,0c0.1,0,0.1,0,0.1,0.1
			c0,0,0.2,0.2,0.1,0.1c0,0-0.2-0.2-0.3-0.2c-0.2,0-0.4,0-0.4,0.1c-0.1,0-0.1,0-0.1-0.1c0,0.1,0,0.1,0,0.2c-0.1,0-0.2-0.1-0.2-0.1
			C13.7,7.3,13.6,7.5,13.5,7.5z"/>
	</g>
</g>
<g>
	<path class="st1" d="M29.4,9.5c0.1,0,0.1,0,0.1,0C29.5,9.4,29.4,9.5,29.4,9.5z"/>
	<polygon class="st1" points="29.6,9.5 29.6,9.5 29.6,9.5 	"/>
	<path class="st1" d="M29.4,1C29.4,1,29.3,1,29.4,1C29.4,1,29.4,1,29.4,1z"/>
	<path class="st1" d="M30.5,8l-0.1-0.1c0-0.1,0.2,0,0.2,0c-0.2-0.1,0.1-0.1,0-0.2c0,0,0,0,0.1,0c-0.1-0.1,0,0,0-0.1c0,0,0,0-0.1,0
		l0-0.1c0,0,0.1,0,0.1,0c0.1-0.1,0.5-0.7,0.5-0.9c-0.1,0-0.1,0.1-0.2,0c-0.1-0.1,0.1,0,0-0.1c0.2,0.1,0.1-0.1,0.3,0L31,6.5l0.1,0
		c0-0.2,0-0.1,0-0.2c0-0.1-0.1-0.2,0-0.2c0,0-0.1,0-0.1,0c0.1,0,0-0.1,0.1-0.1c0,0,0-0.1-0.1-0.1c0.1,0,0.1,0,0.2,0c0,0,0,0,0-0.1
		l0,0c0-0.1,0.1-0.1,0-0.2l-0.1,0c0,0,0-0.1,0.2,0l0,0.1c0-0.1,0-0.1,0-0.2l0,0c-0.1-0.1-0.1-0.2-0.1-0.3c0-0.1-0.1-0.2-0.1-0.3
		l-0.1,0l-0.1-0.1c0,0,0,0,0,0c0,0,0.1,0,0.1,0.1c0.1,0,0.1,0.1,0.1,0.1c0,0,0-0.1,0-0.1c0,0,0-0.1,0.1-0.2c0.1-0.1,0.2-0.2,0.2-0.2
		c0.1,0,0.1,0.1,0.2,0.1c0-0.1-0.1-0.1,0-0.1c0,0,0.1,0.1,0.1,0.1c0,0,0,0,0,0c0,0-0.1-0.1-0.2-0.2l0,0l0.1,0.1c0,0-0.2-0.2-0.1-0.2
		c0.1,0,0.1-0.1,0.2-0.2c0,0,0,0.1,0.1,0.1c0,0,0,0,0.1,0c-0.1,0,0-0.1-0.1-0.1c-0.1-0.2,0.1-0.1,0.1-0.3c-0.1-0.1-0.6-0.7-1.2-1.3
		c-0.6-0.6-1.1-1.3-1.2-1.4c0,0,0,0,0.1,0c0,0-0.1,0-0.1,0l0.1,0.1c0,0.1-0.1,0-0.1,0c-0.1-0.1-0.1-0.1,0-0.2c0,0-0.1,0-0.1,0.1
		c-0.1,0-0.1-0.1-0.1-0.1c0,0,0,0.1,0,0.1l0,0C29,1.1,29,1.2,29,1.2c0,0.1,0,0.1-0.1,0.1l0,0c-0.1,0-0.1,0.1-0.1,0.1
		c0,0,0.1,0,0.1,0.1c-0.1,0-0.1,0.1-0.2,0.1l0,0.1c0,0-0.1,0.1-0.2,0.2c-0.1,0.1-0.2,0.3-0.3,0.4C28.1,2.5,28,2.6,28,2.8
		c-0.1,0.1-0.1,0.3-0.2,0.3l0,0c-0.1,0.2-0.2,0.5-0.3,0.8c-0.1,0.1-0.1,0.3-0.1,0.4c0,0.1,0,0.2,0,0.3c-0.1,0-0.1,0.1-0.2,0.1
		c0,0,0.1,0,0.1,0c-0.1,0.1,0.1,0,0,0.2c0,0.2-0.4,0.8-0.5,0.9c0.1,0.1,0,0.2,0,0.3l0,0c0,0.1-0.3,0.5-0.3,0.7l0,0
		c0,0.1-0.1,0-0.2,0.1c0.2,0.1,0.2,0.2,0.2,0.2l0,0c0,0.1,0.1,0.2,0.1,0.3l-0.1,0c0.1,0.1,0,0.2,0,0.2c-0.1,0.1-0.3,0.2-0.2,0.4
		l-0.3,0l0,0c0,0,2.8,1.3,3.4,1.4l0.1,0l0,0c0.1,0,0-0.1,0.1,0l0,0.1c0,0,0.1,0,0.1,0.1c0,0,0,0,0.1,0c0,0,0,0-0.1,0
		c0,0-0.1-0.1,0-0.1c0,0,0.1,0.1,0.2,0c0.2-0.2,0.4-0.4,0.5-0.7c0,0,0,0,0,0c0-0.1,0-0.2,0-0.2c0,0,0.1,0,0.1,0
		C30.3,8.4,30.5,8,30.5,8z"/>
</g>
<g>
	<path class="st3" d="M19.6,24.7c0,0.1,0,0.2,0.1,0.2C19.6,24.7,19.6,24.7,19.6,24.7z"/>
	<polygon class="st3" points="19.6,24.9 19.6,24.9 19.6,24.9 	"/>
	<path class="st3" d="M25.2,26.6C25.2,26.6,25.2,26.6,25.2,26.6C25.2,26.6,25.2,26.6,25.2,26.6z"/>
	<path class="st3" d="M21,25.4l0-0.2C21.1,25.2,21,25.5,21,25.4c0.1-0.4,0.2,0,0.2-0.1c0,0,0,0,0,0.1c0-0.2,0,0,0.1-0.1
		c0-0.1,0-0.1,0-0.1l0.1-0.1c0,0.1,0,0.2,0,0.2c0.1,0,0.2,0.1,0.4,0.2l0,0l0,0c0,0,0,0,0,0l0,0l0-0.2c0-0.1,0-0.2,0-0.4
		c0-0.1,0-0.1,0-0.2l0-0.1c0-0.1,0-0.3,0.1-0.4c0-0.1,0-0.1,0-0.2c0,0,0-0.1,0-0.1c0-0.1,0-0.2,0-0.2c0-0.1,0-0.1,0-0.2
		c0-0.1,0-0.1,0-0.2c0,0,0,0,0-0.1c0,0,0,0,0-0.1c0,0,0-0.1,0-0.1c0-0.1,0-0.1,0.1-0.2c0-0.1,0-0.1,0-0.1c0,0,0-0.1,0-0.1
		c0,0,0,0.1,0,0.1c0,0,0,0.1,0,0.1c0,0,0-0.1,0-0.1c0,0,0,0,0-0.1c0,0,0-0.1,0-0.1c0,0,0-0.1,0-0.1c0,0,0-0.1,0.1-0.1l0,0
		c0,0,0,0,0,0c0,0,0,0,0,0c0,0,0,0,0,0c0,0,0,0,0,0c0,0,0,0,0,0c0,0,0,0,0,0c0,0,0,0,0,0c0,0,0,0,0,0c0,0,0,0,0,0l0,0l0,0l0,0l0,0
		l0,0l0,0c0,0,0,0,0,0l0,0l0,0l0,0c0,0,0,0,0,0c0,0,0,0,0,0c0,0,0,0,0,0c0,0,0,0,0,0c0,0,0,0,0,0c0,0,0,0,0,0c0,0,0,0-0.1,0
		c0,0-0.1,0-0.1,0c0,0,0,0-0.1,0c0,0-0.1,0-0.1,0c-0.1,0-0.1,0-0.1,0c0,0,0,0-0.1,0c0,0-0.1,0-0.1,0c0,0,0,0-0.1,0c0,0,0,0,0.1,0
		c0,0-0.1,0-0.1,0c0,0-0.1,0-0.1,0c-0.1,0-0.1,0-0.2,0l0.2,0c-0.1,0-0.1,0-0.2,0c-0.1,0-0.1,0-0.2,0c-0.1,0-0.1,0-0.2,0
		c-0.1,0-0.2,0-0.3,0c-0.1,0-0.2,0-0.3-0.1c-0.2,0-0.3-0.1-0.5-0.1c-0.1,0-0.2,0-0.2,0l0,0l0,0c0,0,0,0,0,0l0,0l0,0c0,0,0,0,0.1,0
		c0,0,0.1,0,0.1,0c0,0,0,0,0,0c0,0,0,0,0,0c0,0-0.1,0-0.2,0l-0.1,0c0,0,0,0.1,0.1,0.1l0,0c0.1,0,0.2,0.2,0.3,0.3
		c0.1,0.1,0.2,0.2,0.3,0.3l0.2,0l0.1,0.1c0,0,0,0,0,0c0,0,0,0-0.1,0c0,0-0.1,0-0.2-0.1c-0.1,0-0.2-0.1-0.2-0.1c0,0,0,0.2,0,0.3
		c0,0.1-0.1,0.3-0.1,0.3c-0.1,0-0.3-0.1-0.3-0.1c0,0.1,0.2,0.1,0.1,0.1c0,0-0.1,0-0.1-0.1c0,0,0,0,0,0c0.1,0,0.3,0.1,0.4,0.1l0,0
		l-0.1,0c0,0,0.3,0.2,0.3,0.2c-0.1,0.1-0.1,0.2-0.1,0.2c-0.1,0-0.1-0.1-0.1-0.1c0,0,0,0-0.1,0c0.1,0,0.1,0.1,0.1,0.1
		c0.3,0.2,0,0.1,0.2,0.3c0.1,0.1,1.3,0.6,2.4,1.1c1.1,0.5,2.3,1.1,2.5,1.2c0,0,0,0-0.1,0c0.1,0,0.1,0,0.1,0L25,26.4
		c0-0.1,0.1,0,0.1,0c0.1,0.1,0.1,0.1,0.1,0.2c0,0,0.2,0,0-0.1c0.1,0,0.2,0.1,0.3,0.1c0-0.1-0.1-0.2,0-0.2l0,0c0.2,0-0.2-0.2,0-0.3
		l0,0c0.1,0,0-0.1,0.1-0.1c0,0-0.1,0-0.1-0.1c0.1,0,0-0.1,0.2-0.1l-0.1-0.1c0.1-0.1,0.1-0.4,0.2-0.7c0-0.3,0.1-0.6,0.1-0.7l0,0
		c0-0.2,0.1-0.5,0.1-0.7c0-0.1,0-0.1,0-0.2c0-0.1,0-0.2,0-0.4c0-0.2,0-0.4,0-0.7c0-0.3-0.1-0.6-0.2-0.8c0-0.2-0.1-0.4-0.2-0.6
		c-0.1-0.1-0.1-0.2-0.2-0.3c-0.1-0.1-0.1-0.2-0.2-0.3c0,0.1,0,0.2,0,0.2c0,0-0.1,0-0.1-0.1c-0.1-0.1-0.2-0.2-0.2-0.2
		C24.7,20,24.7,20,24.7,20c-0.1,0-0.1,0-0.1,0c0,0,0,0-0.1,0c0,0-0.1,0-0.1-0.1c0,0,0,0,0,0c0,0,0,0-0.1,0c0,0-0.1,0-0.1-0.1
		c-0.1,0-0.1,0-0.2-0.1c0,0-0.1,0-0.1,0c0,0-0.1,0-0.1,0c0,0-0.1,0-0.1,0c0,0-0.1,0-0.1,0c0,0,0,0-0.1,0c0,0,0,0-0.1,0
		c0,0-0.1,0-0.1,0c-0.3-0.1-0.5-0.1-0.7-0.2l0,0l0,0l0,0l0,0c0,0-0.1,0-0.1,0c0,0-0.1,0-0.1-0.1c-0.1,0-0.2-0.1-0.2-0.1
		c-0.1,0.2-0.2,0-0.3,0.2l0-0.1c-0.1,0.1-0.6-0.2-0.7-0.1l0,0C21,19.2,21,19,21,18.9c0,0.2-0.1,0.4-0.1,0.4l0-0.1
		c0,0-0.2,0.2-0.2,0.3l0-0.1c-0.1,0.1-0.2,0.1-0.2,0.1c-0.1-0.1-0.2-0.3-0.4-0.1l-0.1-0.4l0,0c0,0-0.1,1.1-0.2,2.4
		c-0.1,1.3-0.2,2.7-0.1,3.2l0,0.1l0,0c0,0.1,0.1-0.1,0,0l0,0c0,0,0,0.1,0,0.2c0,0,0,0,0,0.1c0-0.1,0-0.1,0-0.1c0,0,0.1-0.2,0.1-0.1
		c0,0,0,0.2,0,0.2c0.2,0.1,0.4,0.3,0.7,0.3c0,0.1,0,0.1,0,0.1c0.1-0.1,0.1,0,0.2-0.1c0,0.1,0,0.1,0,0.2C20.7,25.4,21,25.4,21,25.4z"
		/>
</g>
<path class="st4" d="M26.3,34.2c0.3-1.9,0.7-3.7,1.2-5.5c0.9-3.4,2.1-6.9,4.2-9.7c0.3-0.4,0.6-0.7,0.9-1.1c0.2-0.3,0.4-0.6,0.4-0.9
	c0-0.2-0.1-0.4-0.2-0.6c-0.3-0.4-0.9-0.6-1.5-0.7c-0.7-0.1-1.5-0.1-2.3-0.1c-1,0-2,0.1-3,0.2c-2.4,0.3-4.8,0.7-7.2,1.1
	c-2.3,0.4-4.6,0.9-6.9,1.5c-1.4,0.3-2.9,0.7-4.3,1.1c-0.2,0.1-0.7,0.1-0.7,0.5c0,0.2,0.1,0.3,0.2,0.5c0.2,0.3,0.3,0.6,0.5,0.9
	c1.2,2.2,2.4,4.3,3.7,6.4c0.7,1.1,1.4,2.3,2.1,3.4c0.6,0.8,1.1,1.7,1.8,2.4c0.2,0.2,0.4,0.5,0.6,0.6c0.2,0.1,0.7,0.2,0.6-0.2
	c-0.3-1.1-0.6-2.3-0.8-3.4c-0.4-1.8-0.9-3.6-1.3-5.4c-0.1-0.4-0.2-0.8-0.3-1.3c-0.1,0.1-0.1,0.2-0.2,0.3c0.6-0.3,1.3-0.5,1.9-0.6
	c0.4-0.1,0.9-0.1,1.3,0c0.1,0,0.1,0,0.2,0.1c0,0,0.1,0.1,0.1,0.1c0,0,0.1,0.2,0.1,0.3c0.2,0.8-0.1,1.6-0.2,2.3
	c-0.2,1-0.4,2.1-0.5,3.1c-0.1,1-0.1,2.1,0.5,3c0.2,0.3,0.9,0.2,0.6-0.2c-0.5-0.7-0.5-1.8-0.4-2.7c0.1-1.1,0.3-2.1,0.5-3.2
	c0.1-0.8,0.4-1.7,0.2-2.5c-0.3-1-1.5-1.1-2.3-1c-0.9,0.1-1.7,0.3-2.5,0.7c-0.1,0.1-0.2,0.2-0.2,0.3c0.3,1.1,0.6,2.3,0.8,3.4
	c0.4,1.8,0.9,3.6,1.3,5.4c0.1,0.4,0.2,0.8,0.3,1.3c0.2-0.1,0.4-0.1,0.6-0.2c-0.1-0.1-0.2-0.2-0.3-0.2c-0.1-0.1-0.1-0.1-0.2-0.2
	c-0.1-0.1,0,0,0,0c0,0-0.1-0.1-0.1-0.1c-0.3-0.3-0.5-0.7-0.8-1c-0.7-1-1.3-1.9-2-2.9c-1.4-2.2-2.7-4.4-3.9-6.7
	c-0.4-0.7-0.8-1.4-1.2-2.2c-0.1-0.1-0.1-0.4-0.2-0.5c0,0,0,0.2-0.1,0.2c0,0-0.1,0,0,0c0,0,0,0,0.1,0C8,20,8.4,19.9,8.8,19.8
	c0.7-0.2,1.5-0.4,2.2-0.5c2.1-0.5,4.2-1,6.3-1.4c2.4-0.5,4.8-0.9,7.1-1.2c1.1-0.1,2.1-0.3,3.2-0.4c0.5,0,0.9-0.1,1.4-0.1
	c0.2,0,0.4,0,0.6,0c0.1,0,0.1,0,0.2,0c0.1,0,0.2,0,0.3,0c0.3,0,0.7,0,1,0.1c0,0,0.1,0,0.1,0c0,0,0.1,0,0.1,0c-0.1,0,0,0,0.1,0
	c0,0,0.1,0,0.1,0c0.1,0,0.1,0,0.2,0.1c0,0,0.2,0.1,0.1,0c0,0,0.1,0,0.1,0.1c0,0,0,0,0.1,0c0.1,0,0,0,0,0c0,0,0.1,0.1,0.1,0.1
	c0.1,0,0-0.1,0,0c0,0,0,0,0,0.1c0.1,0.1,0,0,0,0c0,0,0,0.1,0,0c0,0,0,0.1,0,0.1c0,0,0,0,0,0.1c0,0,0,0,0,0c0-0.1,0,0,0,0
	c-0.1,0.4-0.5,0.8-0.7,1.1c-0.3,0.3-0.5,0.7-0.8,1c-0.5,0.7-0.9,1.5-1.3,2.3c-0.8,1.6-1.4,3.3-2,5c-0.8,2.4-1.3,4.8-1.7,7.2
	c0,0.1,0,0.3-0.1,0.4C25.5,34.4,26.3,34.6,26.3,34.2L26.3,34.2z"/>
<path class="st4" d="M17.5,4.7c-1.5,0.5-3,1.2-4.3,2.1c-2.7,1.7-5.2,4-6.6,7c-1,2.1-1.4,4.3-1.3,6.6c0,0.1,0.1,0.6,0.4,0.5
	c1.3-0.5,2.7-0.9,4-1.3c3.8-1.1,7.7-1.8,11.5-2.3c3.2-0.4,6.4-0.7,9.6-0.8c0.2,0,0.2-0.3,0.2-0.4c-0.8-2.5-2-5-3.7-7.1
	c-1.7-2-3.8-3.5-6.1-4.6c-1-0.4-2-0.8-2.9-1.4c-0.2-0.1-0.3,0.1-0.3,0.2c0,0.2,0.1,0.4,0.2,0.5c0.8,0.5,1.6,0.8,2.4,1.2
	c1.1,0.5,2.2,1,3.2,1.7c2,1.4,3.6,3.2,4.8,5.3c0.8,1.4,1.4,2.8,1.9,4.3c0.1-0.1,0.1-0.3,0.2-0.4c-5.2,0.2-10.5,0.8-15.6,1.8
	c-2.8,0.6-5.7,1.3-8.4,2.2c-0.4,0.1-0.9,0.3-1.3,0.5c0.1,0.2,0.2,0.3,0.4,0.5c-0.1-2,0.2-4,1-5.8c0.7-1.6,1.6-3,2.8-4.2
	c1.8-1.9,4.1-3.4,6.5-4.5c0.5-0.2,1-0.4,1.5-0.6C18,5.3,17.8,4.6,17.5,4.7L17.5,4.7z"/>
<path class="st4" d="M29.5,8.5c0-0.6,0.4-1.3,0.8-1.8c0.5-0.7,1.3-1.2,2-1.7c0.4-0.2,1-0.5,1.3-0.9c0.7-1.1-3.3-1.4-3.8-1.4
	c-0.7,0-1.3-0.1-2-0.1c-0.1,0-0.2,0-0.2,0.1c0,0.1,0.2,0.1,0.3,0.1c0.2,0,0.2,0,0.4,0c0.4,0,0.7,0,1.1,0c0.9,0.1,1.8,0.1,2.7,0.3
	c0.3,0.1,0.7,0.1,0.9,0.3c0.2,0.1,0.3,0.2,0.1,0.4c-0.2,0.4-0.8,0.6-1.2,0.8c-0.7,0.4-1.4,0.9-2,1.6c-0.5,0.5-1,1.3-1,2
	C29.1,8.6,29.5,8.6,29.5,8.5L29.5,8.5z"/>
<path class="st4" d="M20.4,20.1c0,0.8-0.1,1.6-0.1,2.4c0,0.6-0.1,1.1-0.1,1.7c0,0.2,0,0.4-0.1,0.6c0,0.1-0.1,0.2-0.1,0.3
	c0,0.3,0.6,0.4,0.8,0.4c0.5,0.1,1.1,0.2,1.6,0.3c0.5,0.1,1.1,0.2,1.6,0.4c0.2,0.1,0.3,0.1,0.4,0.2c0.1,0.1,0.2,0.2,0.4,0.1
	c0.3,0,0.3-0.3,0.4-0.5c0.1-0.4,0.2-0.9,0.3-1.3c0.2-1.1,0.4-2.3,0.9-3.4c0.2-0.4,0.4-0.9,0.7-1.1c0.1-0.1,0.5-0.2,0.4-0.4
	c-0.1-0.2-0.5-0.2-0.6-0.2c-0.4,0-0.7,0-1.1,0c-1.7,0-3.4,0.2-5.1,0.3c0,0-0.1,0-0.1,0C20.5,20.1,20.4,20.1,20.4,20.1
	c0.1,0.1,0.3,0.1,0.3,0.1c1.4-0.1,2.8-0.3,4.1-0.3c0.4,0,0.8,0,1.3,0c0.3,0,0.6,0,0.8,0.1c0,0,0,0,0,0c0,0,0,0.1-0.1,0.1
	c-0.3,0.2-0.5,0.4-0.7,0.7c-0.5,0.9-0.7,2-1,3c-0.1,0.5-0.2,1-0.3,1.5c-0.1,0.3-0.1,0.7-0.3,1c0,0,0,0.1-0.1,0.1c0,0,0,0,0,0
	c0,0,0.3,0,0.3,0c0-0.1-0.2-0.2-0.3-0.2c-0.4-0.2-0.9-0.3-1.3-0.4c-0.5-0.1-1.1-0.2-1.6-0.3c-0.2,0-0.5-0.1-0.7-0.1
	c-0.1,0-0.3-0.1-0.4-0.1c-0.1-0.1-0.1-0.1,0-0.2c0-0.1,0.1-0.3,0.1-0.4c0.1-0.5,0.1-1,0.1-1.5c0.1-0.9,0.1-1.9,0.2-2.8
	c0-0.1,0-0.1,0-0.2C20.9,20,20.4,20,20.4,20.1z"/>
<g>
	<g>
		<path class="st5" d="M29.1,31c0,0,0.1-0.1,0.1-0.2C29.1,30.9,29.1,30.9,29.1,31z"/>
		<polygon class="st5" points="29.2,30.8 29.2,30.8 29.2,30.8 		"/>
		<path class="st5" d="M29.2,30.7C29.3,30.7,29.3,30.7,29.2,30.7C29.3,30.7,29.3,30.7,29.2,30.7z"/>
		<path class="st5" d="M31.1,27.5L31.1,27.5c0-0.2,0-0.1,0.1-0.2c-0.1-0.1,0.1-0.3,0.1-0.3c0,0,0-0.1,0.1-0.1c-0.1,0,0-0.1,0-0.1
			c0,0,0,0,0,0l0-0.1c0,0,0.1,0,0.1,0c0,0,0-0.1,0.1-0.2c0,0,0-0.1,0-0.1c0,0,0,0,0,0l0,0l0,0l0,0c0,0,0,0,0,0c0,0,0,0,0,0
			c0,0,0,0,0,0c0,0,0,0,0,0l0,0l0,0c0,0,0,0,0,0c0,0,0,0,0,0c0,0,0.1,0,0.1,0c0,0,0.1,0,0.1,0c-0.1,0-0.2,0-0.2-0.1c0,0,0,0,0,0
			c0,0,0,0,0,0c0,0,0,0,0.1,0c0.1,0.1,0.2,0,0.3,0.1l0-0.1l0.1,0c0.2-0.1,0.2-0.1,0.2-0.1c0,0,0,0,0,0c0,0,0,0,0,0l0,0
			c0,0,0-0.1,0-0.1c0-0.1,0-0.1,0-0.2c0,0,0-0.1,0-0.1c0,0,0-0.1,0-0.1c0,0,0-0.1,0-0.1c0,0,0-0.1,0-0.1c0,0,0,0,0,0c0,0,0,0,0,0
			c0,0,0,0,0-0.1c0-0.1,0-0.1,0-0.2c0,0,0,0,0,0c0,0,0,0,0,0c0,0,0,0,0,0l0,0l0,0c0,0,0,0,0,0l0,0l0,0l0,0l0,0l0,0c0,0,0,0,0,0
			c0,0,0,0,0,0c0,0,0,0,0,0c0,0,0,0,0,0c0,0,0,0,0,0c0,0,0,0,0,0c0,0,0,0,0,0c0,0,0,0,0,0c0,0,0,0,0,0c0,0,0.1,0,0,0c0,0,0,0-0.1,0
			c0,0,0,0-0.1,0c0,0,0,0-0.1,0c0,0,0,0-0.1,0c0,0,0,0-0.1,0c0,0-0.1,0-0.1,0c0,0-0.1,0-0.1,0c0,0,0,0,0,0c0,0-0.1,0-0.1,0l0,0l0,0
			c0,0,0,0,0,0c0,0,0,0,0.1,0c0,0-0.1,0.1-0.1,0c0,0,0,0.1,0,0.1l0,0c0,0,0,0.1,0,0.1c0,0,0,0.1,0,0.1l0,0c0,0.1,0,0.1-0.1,0.2
			c0,0,0-0.1,0-0.1c0,0.1,0,0.1,0,0.2c0,0.1,0,0.1,0,0.2l0,0c0,0,0,0.1,0,0.2c0,0.1,0,0.2,0,0.4c0,0.1,0,0.2,0,0.3
			c0,0.1,0,0.2,0,0.2l0.1,0c0,0,0,0.1,0,0.1c0,0-0.2-0.1-0.1-0.1c0,0.1,0,0.2-0.1,0.3c0,0,0,0,0,0.1c0,0,0,0,0,0.1c0,0,0,0.1,0,0.1
			c0,0,0,0.1,0,0.1c0,0,0,0.1-0.1,0.1c-0.1,0.1-0.2,0.3-0.3,0.4c-0.1,0.1-0.2,0.2-0.2,0.3c-0.1,0.1,0,0-0.1,0
			c-0.1,0.1,0,0.1-0.1,0.2c0,0,0,0,0,0c0,0-0.1,0.1-0.1,0.1c0,0,0.1,0,0.1,0L30.5,29l0,0c0,0,0,0,0,0.1c0,0,0,0.1-0.1,0.1
			c-0.2,0.2-0.4,0.4-0.6,0.6c0,0,0-0.1,0.1-0.1c0,0-0.1,0.1-0.1,0.1c0.1,0-0.1,0.1,0,0.1c0,0.1-0.1,0.2-0.2,0.3
			c-0.1,0.1-0.1,0.2-0.2,0.3c0,0,0,0,0,0.1c0,0,0,0.1,0,0.1c0,0,0,0,0,0.1c0,0,0,0,0,0c0,0,0,0,0,0c0,0-0.1,0.1-0.1,0.1
			c0,0,0.1-0.1,0.1-0.1l0,0c0.1-0.1,0,0,0.1-0.1c0,0-0.1,0.1-0.2,0.1c0,0,0.1,0,0.1-0.1c0,0,0.1,0,0.1,0c0.1,0,0,0,0.1,0
			c0.1,0,0.1-0.1,0.2-0.1l0,0c0.1,0,0.2-0.1,0.2-0.1c0.1,0,0.1-0.1,0.2-0.1l0,0c0.1,0,0.2-0.1,0.3-0.1c0,0-0.1,0,0,0
			c0.1,0,0.2-0.1,0.3-0.1l0.1-0.1c0.1,0,0.1,0,0.2-0.1c0.1,0,0.2-0.1,0.3-0.1c0.2-0.1,0.5-0.3,0.8-0.5c0.1-0.1,0.1-0.1,0.2-0.2
			c0,0,0.1-0.1,0.1-0.1c0,0,0.1-0.1,0.1-0.1c0.1-0.1,0.1-0.1,0.2-0.2c0.1-0.1,0.1-0.1,0.1-0.2c0-0.1,0.1-0.1,0.1-0.2
			c0-0.1,0.1-0.1,0.1-0.2c0-0.1,0.1-0.1,0.1-0.1c0,0,0-0.1,0.1-0.1l0,0c0,0,0-0.1,0.1-0.2c0-0.1,0-0.1,0.1-0.2c0-0.1,0-0.1,0.1-0.2
			c0-0.1,0-0.1,0.1-0.2c0-0.1,0.1-0.3,0.1-0.4c0-0.1,0-0.1,0.1-0.2c0-0.1,0-0.1,0-0.2c0-0.1,0.1-0.3,0.1-0.4c0-0.2,0-0.3,0-0.5
			c0-0.1,0-0.2,0-0.3c0,0,0,0,0-0.1l0,0c0,0,0,0,0,0c0-0.1,0-0.1,0-0.2c0-0.1-0.1-0.3-0.1-0.4c0,0,0-0.1-0.1-0.1c0,0,0,0,0-0.1
			c0,0,0,0,0-0.1c0,0-0.1-0.1-0.1-0.1c0,0,0,0-0.1-0.1c0,0,0,0-0.1-0.1c-0.1-0.1-0.2-0.2-0.4-0.3c-0.1,0-0.2-0.1-0.2-0.1
			c-0.1,0-0.2,0-0.2-0.1c-0.1,0-0.1,0-0.2,0c-0.1,0-0.1,0-0.2,0c-0.1,0-0.1,0-0.2,0c0,0,0,0,0.1,0c0,0,0,0,0,0c0,0,0,0,0,0
			c0,0,0,0,0,0c-0.3,0.1,0,0-0.4,0.1c0,0-0.1,0-0.2,0.1c0,0-0.1,0-0.1,0c-0.1,0-0.1,0-0.2,0c0,0,0,0-0.1,0c0,0,0,0,0,0c0,0,0,0,0,0
			c0,0-0.1,0-0.1,0c-0.1,0-0.2,0.1-0.3,0.1c-0.2,0.1-0.4,0.2-0.5,0.3c0,0-0.1,0.1-0.1,0.1c0,0,0,0-0.1,0.1l0,0l0,0c0,0,0,0,0,0.1
			c0,0,0,0,0,0.1l0,0l0,0c0,0,0,0,0,0.1c-0.1,0.2-0.2,0.3-0.2,0.5c0,0,0,0,0,0c0,0,0,0,0,0c0,0,0,0,0,0.1c0,0,0,0.1,0,0.1
			c0,0,0,0,0,0.1c0,0,0,0,0,0c0,0,0,0,0,0.1c0,0,0,0.1,0,0.1c0,0,0,0.1,0,0.1c0,0.2-0.1,0.4,0,0.6l0,0c0,0.1,0,0.2,0,0.3
			c0,0.1,0,0.1,0,0.2c0,0.1,0,0.2,0,0.2c0,0.2,0,0.3-0.1,0.5c0,0.1,0,0.3,0,0.3l0,0c0,0.2,0,0.2-0.1,0.3c0.1,0,0.1,0.2,0.1,0.2l0,0
			c0,0.1,0,0.3,0,0.5l0,0c0,0.1,0,0.2,0,0.3c0,0.1,0,0.2,0,0.2c0,0.1,0,0.3,0,0.4c0,0.2,0,0.3,0,0.5c0,0.1,0,0.1,0,0.2l0,0
			c0,0,0,0,0,0c0,0,0,0.1,0,0.1c0,0,0,0,0,0c0,0,0,0,0,0c0,0,0,0,0-0.1c0,0,0-0.1,0.1-0.1l0,0l0-0.1c0.1-0.1,0.1-0.1,0.1-0.1
			l-0.1,0.1c0.1-0.1,0,0,0,0c0,0,0-0.1,0.1-0.1c0,0,0,0,0,0c0,0,0.1-0.1,0.1-0.2c0.1-0.1,0,0,0.1-0.1c0.2-0.3,0.4-0.5,0.5-0.8
			c0.2-0.3,0.3-0.5,0.5-0.8c0,0,0,0,0,0c0.1-0.2,0.2-0.3,0.2-0.5c0,0,0.1,0,0.1-0.1c0,0,0,0,0-0.1c0-0.1,0.1-0.2,0.1-0.3
			c0-0.1,0.1-0.1,0.1-0.2c0-0.1,0-0.1,0.1-0.1C31.1,27.6,31.1,27.5,31.1,27.5z"/>
	</g>
	<g>
		<path class="st5" d="M29.4,31.3C29.4,31.3,29.4,31.3,29.4,31.3c0.1-0.1,0.1-0.1,0.2-0.2C29.5,31.2,29.4,31.2,29.4,31.3z"/>
		<polygon class="st5" points="29.6,31.2 29.6,31.1 29.6,31.2 		"/>
		<path class="st5" d="M28.7,31.1C28.7,31.1,28.7,31.1,28.7,31.1C28.7,31.1,28.7,31.1,28.7,31.1z"/>
		<path class="st5" d="M33.6,30.1L33.6,30.1c0.2-0.1,0.1,0,0.2-0.1c0-0.1,0.1-0.1,0.2-0.1c0.1,0,0.2,0,0.2-0.1c0,0,0.1,0,0.1,0
			c0-0.1,0.1,0,0.1-0.1c0,0,0,0,0,0l0.1-0.1c0.1,0,0.1,0,0,0.1c0.2,0,0.7-0.2,1.2-0.3c0.1,0,0.2-0.1,0.4-0.1c0,0,0,0,0,0
			c0,0,0,0,0,0l0,0l0,0c0,0,0,0,0,0l0,0c0,0,0-0.1,0-0.1c0,0,0-0.1,0-0.1c0,0,0-0.1,0-0.1c0,0,0,0,0-0.1c0,0,0,0,0-0.1
			c0-0.2,0-0.3,0-0.4c0,0,0,0,0-0.1c0,0,0,0,0,0l0,0l0,0c0,0,0,0,0,0c0,0,0,0,0,0l0,0c0,0,0,0,0,0l0,0c0,0,0,0,0,0l0,0l0,0l0,0l0,0
			c0,0,0,0,0,0c0,0,0,0,0,0c0,0,0,0,0,0c0,0,0,0,0,0c0,0,0,0,0,0c0,0,0,0,0,0c0,0,0.1,0,0.1,0c0,0,0,0,0,0c0,0,0,0,0,0l0,0l0,0l0,0
			l0,0c0,0,0,0,0,0l0,0l0,0l0,0l0,0c0,0,0,0,0,0c0,0,0,0,0,0l0,0l0,0c0,0,0,0,0,0l0,0l0,0c0,0,0,0,0,0c0,0,0,0,0,0c0,0,0,0,0,0
			c0,0,0,0,0,0l0,0l0,0c0,0,0,0,0,0c0,0,0,0,0,0c0,0,0,0,0,0l0,0l0,0l0,0c0,0,0,0,0,0l0,0l0,0l0,0l0,0l0,0c0,0,0,0,0,0c0,0,0,0,0,0
			c0,0,0,0,0,0c0,0,0,0,0,0c0,0,0,0-0.1,0c0,0,0,0,0,0c0,0,0,0,0,0c0,0,0,0,0,0c0,0,0,0-0.1,0c0,0,0,0-0.1,0c0,0-0.1,0-0.1,0
			c0,0-0.1,0-0.2,0c-0.1,0-0.1,0-0.2,0l-0.1,0c0,0,0,0,0,0c0,0,0,0,0,0c0,0,0,0,0,0c0,0,0,0-0.1,0.1l0.1,0l0,0c0,0,0,0.1,0,0.1
			c0,0,0,0,0,0c0,0,0,0,0,0c0,0,0,0,0,0c0,0,0,0,0,0c0,0,0,0,0,0l0,0c0,0,0,0,0,0c0,0,0,0,0,0c0,0,0,0,0,0c0,0,0,0,0,0
			c0,0,0,0,0.1,0c0,0,0,0,0,0c0,0,0,0,0,0c0,0,0,0,0,0c0,0,0,0,0,0c0,0,0,0,0,0c0,0,0,0,0,0c0,0,0,0,0,0c0,0,0,0,0,0
			c0,0,0,0,0.1,0.1c0,0,0,0-0.1,0c0,0,0,0,0,0c0,0,0,0,0,0c0,0,0,0,0,0c0,0,0,0,0,0c0,0,0,0,0,0c0,0,0,0,0,0c0,0,0,0,0,0
			c0,0,0,0,0,0c0,0,0,0,0,0c0,0,0,0,0,0l0,0c0,0,0,0,0,0c0,0,0,0,0,0c0,0,0,0,0,0c0,0,0,0,0,0c0,0,0,0,0,0c0,0,0,0,0,0
			c-0.1,0-0.1,0.1-0.2,0.1l0,0c0,0-0.1,0.1-0.2,0.2c-0.1,0-0.1,0.1-0.2,0.1c0,0-0.1,0-0.1,0.1c0,0,0,0,0,0l0,0
			c-0.1,0.1-0.3,0.1-0.4,0.2c-0.1,0.1-0.2,0.1-0.2,0.1l0.1,0L33.6,30.1c0-0.1,0-0.3,0-0.3c-0.1,0-0.2,0.1-0.4,0.1c0,0-0.1,0-0.2,0
			c-0.1,0-0.1,0-0.2,0c-0.1,0-0.1,0-0.2,0c-0.1,0-0.1,0-0.2,0c-0.1,0-0.2,0.1-0.4,0.1c-0.1,0-0.1,0-0.2,0c-0.1,0-0.1,0-0.2,0
			c-0.1,0-0.2,0-0.3,0.1c-0.1,0-0.1,0-0.2,0c-0.1,0,0-0.1,0-0.1c-0.1,0.1-0.1,0.1-0.2,0.1c0,0,0,0,0,0c-0.1,0-0.1,0-0.1,0
			c0.1,0,0,0,0.1,0.1c-0.1,0-0.1,0-0.2,0l0,0c0,0,0,0-0.1,0.1c0,0-0.1,0.1-0.2,0.1c-0.1,0-0.3,0.1-0.4,0.1c-0.1,0-0.3,0.1-0.4,0.1
			c0,0,0.1,0,0.1,0c0,0-0.1,0-0.1,0c0.1,0-0.1,0-0.1,0c-0.1,0-0.2,0.1-0.3,0.1c-0.1,0-0.2,0-0.3,0.1c0,0,0,0-0.1,0.1
			c0,0-0.1,0.1-0.1,0.1c0,0-0.1,0-0.1,0c0,0-0.1,0-0.1,0c-0.1,0-0.1,0-0.1,0c0,0,0.1,0.1,0.2,0.1l0,0c0.1,0,0,0,0.2,0.1
			c0,0,0,0-0.1,0c0,0-0.1,0-0.2-0.1c0.1,0,0.2,0.1,0.2,0.1c0.1,0,0,0,0.1,0c0.1,0,0.2,0,0.3,0.1l0,0c0.1,0,0.1,0,0.1,0.1
			c0,0,0.1,0,0.1,0c0.1,0,0.2,0,0.3,0.1l0,0c0.1,0,0.2,0.1,0.3,0.1c0,0-0.1,0,0,0c0.1,0.1,0.3,0.1,0.4,0.1c0,0,0.1,0,0.1,0
			c0.1,0,0.2,0,0.3,0c0.1,0,0.2,0,0.4,0.1c0.3,0,0.6,0.1,0.9,0.1c0.1,0,0.2,0,0.2,0c0.1,0,0.2,0,0.2,0c0.1,0,0.2,0,0.2,0
			c0.1,0,0.2,0,0.2,0c0.1,0,0.3,0,0.4,0c0.1,0,0.2,0,0.3,0l0,0c0.1,0,0.2,0,0.3,0c0.1,0,0.2,0,0.3-0.1c0.1,0,0.2,0,0.4-0.1
			c0.1,0,0.3-0.1,0.4-0.1c0.1,0,0.1,0,0.2-0.1c0.1,0,0.1,0,0.2-0.1l0.1,0c0,0,0,0,0.1,0l0.1,0l0.1,0l0.1,0c0,0,0,0,0,0l0,0
			c0,0,0.1,0,0.1,0c0.1,0,0.1,0,0.2-0.1c0,0,0,0,0,0l0,0c0,0,0,0,0.1,0c0.1-0.1,0.2-0.1,0.3-0.2c0.1-0.1,0.2-0.1,0.2-0.2
			c0.1-0.1,0.1-0.1,0.2-0.2c0,0,0,0,0,0l0,0l0,0c0,0,0,0,0,0c0,0,0,0,0-0.1c0,0,0-0.1,0.1-0.1c0,0,0-0.1,0.1-0.1c0,0,0-0.1,0-0.1
			c0.1-0.1,0.1-0.3,0.1-0.4c0,0,0-0.1,0-0.1c0,0,0-0.1,0-0.1c0-0.1,0-0.1,0-0.2c0-0.1,0-0.1,0-0.2c0-0.1,0-0.1,0-0.2
			c0,0.1,0,0.1,0,0.1c0,0,0,0,0-0.1c0,0,0-0.1,0-0.1c0,0,0,0,0-0.1c0,0,0-0.1,0-0.1c0,0,0,0,0,0c0,0,0,0,0,0c0,0,0-0.1,0-0.2
			c0,0,0,0,0-0.1c0,0,0,0,0-0.1c0-0.1,0-0.1-0.1-0.3c0-0.1-0.1-0.1-0.1-0.2c0-0.1-0.1-0.2-0.2-0.3c0,0,0,0-0.1-0.1c0,0,0,0-0.1-0.1
			c0,0,0,0-0.1-0.1c0,0-0.1,0-0.1-0.1c0,0-0.1,0-0.1,0c0,0-0.1,0-0.1,0c0,0-0.1,0-0.1,0c0,0-0.1,0-0.1,0c0,0-0.1,0-0.1,0
			c0,0-0.1,0-0.1,0l0,0l0,0l0,0c0,0,0,0-0.1,0c0,0-0.1,0-0.1,0c0,0-0.1,0-0.1,0c-0.2,0-0.3,0-0.4,0.1c-0.1,0-0.1,0-0.2,0
			c0,0-0.1,0-0.1,0l-0.1,0c-0.1,0-0.1,0.1-0.2,0.1c-0.5,0.2-1,0.4-1.2,0.5c-0.2,0.2-0.4,0.2-0.6,0.4l0,0c0,0-0.2,0.1-0.3,0.2
			c-0.1,0.1-0.3,0.2-0.5,0.3c-0.2,0.1-0.3,0.2-0.5,0.3c-0.1,0.1-0.3,0.2-0.3,0.2l0,0c-0.2,0.2-0.2,0.1-0.3,0.2c0,0-0.1,0.2-0.2,0.2
			l0,0c-0.1,0.1-0.3,0.3-0.4,0.4l0,0c-0.1,0.1-0.2,0.1-0.2,0.2c-0.1,0.1-0.2,0.1-0.2,0.2c-0.1,0-0.1,0.1-0.2,0.1
			c-0.1,0.1-0.1,0.1-0.2,0.2c-0.1,0.1-0.3,0.3-0.3,0.5c0,0.1-0.1,0.2-0.1,0.2l0,0c0,0,0,0,0,0.1c0,0,0,0.1,0,0.1c0,0,0,0,0,0
			c0,0,0,0,0,0c0,0,0,0,0-0.1c0,0,0,0,0,0c0,0,0,0,0.1-0.1l0,0c0,0,0,0,0,0l0,0c0,0,0,0,0.1,0c0,0,0,0,0,0c0,0,0,0,0,0l0,0l0,0
			c0,0,0,0-0.1,0c0,0,0,0,0,0c0,0,0,0,0,0c0,0,0,0,0,0c0,0,0,0,0,0c0,0,0,0,0,0c0,0,0,0,0,0c0,0,0,0,0,0c0,0,0,0,0,0c0,0,0,0,0,0
			c0,0,0,0,0.1-0.1c0,0,0,0,0,0c0,0,0,0,0,0c0,0,0.1,0,0.1,0c0,0,0,0,0.1,0c0.2-0.1,0.3-0.1,0.5-0.1c0.1,0,0.2,0,0.3,0
			c0.1,0,0.2,0,0.3-0.1c0.3-0.1,0.7-0.1,1-0.2c0,0,0,0,0,0c0.1,0,0.2-0.1,0.3-0.1c0.1,0,0.2-0.1,0.3-0.1c0.1,0,0.1,0,0.1,0
			c0,0,0,0,0.1-0.1c0,0,0.1,0,0.2,0c0.1,0,0.1,0,0.2-0.1c0.1,0,0.3-0.1,0.4-0.1C33.5,30.1,33.6,30.1,33.6,30.1z"/>
	</g>
	<g>
		<path class="st5" d="M29.8,31.5c0.1,0,0.2,0,0.3,0C30,31.5,30,31.5,29.8,31.5z"/>
		<polygon class="st5" points="30.1,31.5 30.1,31.5 30.1,31.5 		"/>
		<path class="st5" d="M29.1,31.7C29.1,31.7,29.1,31.7,29.1,31.7C29.1,31.7,29.1,31.7,29.1,31.7z"/>
		<path class="st5" d="M35,31.5L35,31.5c0.1-0.1,0.1,0,0.2,0c0,0,0,0,0.1,0c0,0,0.1,0,0.2,0c0.1,0,0.1,0.1,0.2,0c0,0,0.1,0,0.1,0.1
			c0-0.1,0.1,0,0.1,0c0,0,0,0,0,0c0,0,0,0,0,0c0,0,0,0,0,0c0,0,0,0.1,0,0.1c0,0,0.1,0,0.1,0.1c0,0,0,0,0,0.1c0,0,0,0,0,0
			c0,0,0,0,0-0.1c0,0,0,0,0,0l0,0l0,0c0,0,0,0,0,0c0,0,0,0,0,0c0,0,0,0,0,0l0,0l0,0l0,0l0,0c0.1,0,0,0,0,0l0,0l0,0l0,0l0,0
			c0,0,0,0,0,0l0,0l0,0c0,0,0,0-0.1,0c0,0,0,0-0.1,0l0,0l0,0l0,0c0,0,0,0,0,0l0,0c0,0,0,0,0,0.1c0,0,0,0.1,0,0.1c0,0.1,0,0.2,0,0.3
			c0,0.1,0,0.2,0,0.3c0,0,0,0.1,0,0.1c0,0,0,0,0,0c0,0,0,0,0,0c0,0,0,0,0,0c0,0,0,0,0,0c0,0,0-0.1,0.1-0.1c0,0.1,0,0.1,0,0.2
			c0,0-0.1,0-0.1,0c0,0,0,0,0,0.1c0,0,0,0,0,0c0,0,0,0-0.1,0l0.1,0c0,0,0,0,0,0c0,0,0,0,0,0c0,0,0,0,0,0c0,0,0,0,0,0c0,0,0,0,0,0
			c0,0,0,0,0,0c0,0,0,0,0,0c0,0,0,0,0,0c0,0,0,0,0,0c0,0,0,0,0,0c0,0,0,0,0,0c0,0,0,0,0,0c0,0,0,0,0,0c0,0,0,0,0,0c0,0,0,0,0,0
			c0,0,0,0,0,0c0,0,0,0,0,0c0,0,0.1,0,0,0.1c0,0,0,0,0,0c0,0,0,0-0.1,0c0,0,0,0-0.1,0c0,0,0,0,0,0.1c0,0-0.2,0-0.1-0.1
			c0,0,0,0-0.1,0c0,0,0,0-0.1,0c0,0,0,0,0.1,0c-0.1,0-0.1,0-0.2,0c0,0-0.1,0-0.1,0c0,0-0.1,0-0.1,0.1l0.1,0c-0.1,0-0.2,0.1-0.3,0
			l0,0l0,0l0.1,0c-0.1,0-0.2,0-0.2,0.1c0,0-0.1,0-0.1,0c0,0-0.1,0-0.1,0.1c0,0,0,0,0.1,0c-0.1,0.1-0.4,0.2-0.8,0.2
			c-0.2,0-0.3,0.1-0.5,0.1c-0.1,0-0.1,0-0.2,0c-0.1,0-0.1,0-0.1,0l0.1,0c-0.1,0-0.1,0-0.2,0.1c0,0,0.1-0.2,0.1-0.2
			c-0.1,0-0.3,0-0.5,0c-0.1,0-0.3,0-0.4,0c-0.1,0-0.1,0-0.2,0c-0.1,0-0.1,0-0.2,0c-0.1,0-0.3,0-0.4,0c-0.1,0-0.3,0-0.4,0
			c-0.1,0-0.2,0-0.3-0.1c0,0-0.1,0-0.1,0c0,0-0.1,0-0.1,0c-0.1-0.1,0-0.1,0-0.1c-0.1,0-0.1,0-0.2,0c0,0,0,0,0,0c-0.1,0-0.1,0-0.1,0
			c0.1,0,0,0.1,0,0.1c0,0,0,0-0.1,0c0,0,0,0-0.1,0l0,0c0,0,0,0-0.1,0c0,0,0,0-0.1,0c0,0-0.1,0-0.1-0.1c-0.1-0.1-0.2-0.2-0.3-0.3
			c-0.1-0.1-0.2-0.2-0.2-0.4c0,0,0,0,0,0c0,0,0,0,0,0.1c0,0,0,0,0,0c0,0,0,0,0,0c0,0,0,0,0-0.1c0,0,0,0,0,0c0,0,0-0.1,0,0
			c-0.1-0.1-0.1-0.2-0.1-0.4c0-0.1,0-0.3-0.1-0.4c0,0,0,0-0.1-0.1c0,0,0-0.1-0.1-0.2c0-0.1,0-0.1,0-0.2c0,0,0,0,0-0.1c0,0,0,0,0,0
			c0-0.1,0.1-0.1,0.1-0.1c0,0-0.1,0.1-0.1,0.2l0,0c0,0.1,0,0.1,0,0.1c0,0,0,0,0,0.1c0,0,0,0,0-0.1c0,0,0.1-0.1,0.1-0.2
			C29,31.9,28.9,32,28.9,32c0,0.1,0,0-0.1,0.1c0,0,0,0.1-0.1,0.2c0,0.1,0,0.1-0.1,0.2l0,0c0,0.1-0.1,0.3-0.1,0.4c0,0.1,0,0.1,0,0.2
			c0,0,0,0.1,0,0.1c0,0,0,0.1,0,0.1l0,0c0,0.1,0,0.1,0,0.2c0,0,0,0,0,0.1c0,0,0,0,0,0.1c0,0,0,0.1,0,0.1c0,0,0,0.1,0,0.1
			c0-0.1,0-0.1,0,0c0,0,0,0.1,0,0.1c0,0,0,0.1,0,0.1c0,0,0,0.1,0,0.1c0,0.1,0.1,0.2,0.1,0.2c0,0,0.1,0.1,0.1,0.1
			c0.1,0.1,0.1,0.2,0.3,0.3c0.1,0.1,0.3,0.3,0.4,0.4c0.2,0.1,0.4,0.2,0.6,0.3c0.1,0,0.2,0.1,0.3,0.1c0.1,0,0.2,0.1,0.3,0.1
			c0.1,0,0.2,0.1,0.3,0.1c0.1,0,0.2,0,0.3,0.1c0.1,0,0.1,0,0.2,0c0,0,0,0,0.1,0c0,0,0,0,0.1,0c0.1,0,0.2,0,0.3,0
			c0.3,0,0.6,0.1,0.8,0.1l0,0c0.1,0,0.1,0,0.2,0c0.1,0,0.1,0,0.2,0c0.1,0,0.2,0,0.2,0c0.1,0,0.2,0,0.3,0c0.2,0,0.4,0,0.6,0
			c0.2,0,0.4,0,0.6-0.1c0.1,0,0.2,0,0.3,0c0.1,0,0.2,0,0.3,0c0.2,0,0.4-0.1,0.6-0.2c0.2-0.1,0.4-0.2,0.6-0.3
			c0.2-0.1,0.4-0.2,0.5-0.4c0,0,0.1,0,0.1,0c0,0,0.1,0,0.1-0.1c0,0,0.1,0,0.1-0.1c0,0,0.1-0.1,0.1-0.1c0,0,0.1-0.1,0.1-0.1
			c0,0,0.1-0.1,0.1-0.1c0.1-0.1,0.1-0.1,0.1-0.2c-0.1,0.1-0.1,0.1-0.1,0.1c0,0,0-0.1,0-0.1c0.1-0.1,0.1-0.2,0.1-0.2
			c0-0.1,0-0.1,0.1-0.1c0-0.1,0-0.1,0-0.1c0,0,0,0,0-0.1c0-0.1,0-0.1,0.1-0.3c0-0.1,0-0.2,0.1-0.4c0-0.1,0-0.3,0-0.5
			c0,0,0-0.1,0-0.1c0,0,0-0.1,0-0.1c0-0.1,0-0.2,0-0.3c0-0.2,0-0.4,0-0.6c0-0.1,0-0.3-0.1-0.4c0-0.1-0.1-0.3-0.2-0.4
			c-0.1-0.1-0.1-0.3-0.2-0.4c-0.1-0.1-0.2-0.2-0.3-0.3c-0.1-0.1-0.2-0.2-0.3-0.2c-0.1-0.1-0.2-0.1-0.2-0.1c-0.2-0.1-0.3-0.1-0.4-0.2
			c-0.2,0-0.4-0.1-0.6-0.1c-0.2,0-0.4,0-0.5,0l0,0c0,0-0.1,0-0.2,0c0,0-0.1,0-0.1,0c0,0,0,0-0.1,0c0,0,0,0-0.1,0
			c-0.2,0-0.5,0-0.7,0.1c-0.1,0-0.1,0-0.2,0c-0.1,0-0.1,0-0.2,0c-0.1,0-0.2,0-0.3,0.1c-0.2,0-0.4,0.1-0.5,0.1l0,0
			c-0.3,0.1-0.3,0-0.5,0.1c0,0-0.2,0.2-0.3,0.2l0,0c-0.1,0.1-0.4,0.2-0.7,0.3l0,0c0,0-0.1,0.1-0.2,0.1c-0.1,0-0.1,0.1-0.2,0.1
			c-0.1,0.1-0.2,0.1-0.3,0.1c-0.1,0-0.2,0.1-0.2,0.1c-0.1,0-0.2,0.1-0.3,0.1c-0.2,0.1-0.4,0.2-0.6,0.4c-0.1,0-0.2,0.1-0.2,0.2l0,0
			c0,0,0,0,0,0c0,0-0.1,0-0.1,0.1c0,0,0,0,0,0c0,0,0,0,0,0c0,0,0,0,0.1,0c0,0,0.1,0,0.2,0l0,0c0,0,0.1,0,0.1,0c0.1,0,0.2,0,0.2,0
			l-0.2,0c0.1,0,0,0,0,0c0.1,0,0.1,0,0.2,0c0,0,0,0,0,0c0.1,0,0.2,0,0.3,0c0.1,0,0,0,0.2,0c0.4,0,0.8-0.1,1.2-0.1c0.4,0,0.8,0,1.2,0
			c0,0,0,0,0,0c0.1,0,0.1,0,0.2,0c0.1,0,0.1,0,0.2,0c0.1,0,0.1,0,0.2,0c0.1,0,0.1,0,0.2,0c0.1,0,0.1,0,0.1,0.1c0,0,0.1,0,0.2,0
			c0.1,0,0.1,0,0.2,0c0.1,0,0.1,0,0.2,0c0,0,0.1,0,0.1,0c0,0,0.1,0,0.1,0c0.1,0,0.1,0,0.2,0C35,31.5,35,31.5,35,31.5z"/>
	</g>
	<g>
		<path class="st5" d="M35.8,32.4C35.8,32.4,35.8,32.4,35.8,32.4C35.8,32.4,35.7,32.4,35.8,32.4c-0.1,0-0.1,0-0.1,0
			C35.7,32.4,35.8,32.4,35.8,32.4z"/>
		<polygon class="st5" points="35.7,32.4 35.7,32.4 35.7,32.4 		"/>
		<path class="st5" d="M29.4,31.7C29.4,31.7,29.4,31.7,29.4,31.7C29.4,31.7,29.4,31.7,29.4,31.7z"/>
		<path class="st5" d="M34,32L34,32C34,32.1,34,32,34,32c-0.1,0.1-0.2,0-0.2,0c0,0,0,0,0-0.1c0,0.1,0,0-0.1,0c0,0,0,0,0,0l0,0
			c0,0,0-0.1,0-0.1c-0.1,0-0.2-0.1-0.4-0.1c-0.1,0-0.1,0-0.2-0.1c0,0-0.1,0-0.1,0c0,0,0,0,0,0c0,0.1,0,0,0,0.1c0,0,0,0-0.1,0
			c0-0.1-0.1,0,0-0.2l0,0.1l0,0c-0.1,0.1,0,0-0.1,0c0,0,0,0,0,0c0,0,0,0,0,0c0,0,0,0,0,0c0,0,0,0,0,0.1c0-0.1,0,0,0,0
			c0,0-0.1,0-0.1,0.1c0,0,0-0.1,0-0.1c0,0,0,0,0,0c0,0,0,0,0,0l0,0c0,0,0,0-0.1,0c0,0,0,0-0.1,0c0,0,0,0,0,0c0,0-0.1,0,0-0.1l0,0
			c0,0,0,0,0,0c0,0,0,0,0,0c0,0-0.1,0-0.1,0l0,0c-0.1,0-0.2,0-0.4,0c-0.2,0-0.3,0-0.4,0c0,0,0,0,0,0.1l-0.1,0c0,0,0.1-0.2,0.1-0.1
			c0,0,0,0,0,0c0,0,0,0-0.1,0c0,0-0.1,0-0.2,0c0,0-0.1,0-0.1,0c0,0-0.1,0-0.1,0c-0.1,0-0.1,0-0.2,0c0,0-0.1,0-0.1,0c0,0,0,0-0.1,0
			c0,0,0,0,0,0c0,0,0,0,0,0c0,0,0,0,0,0c0,0,0,0,0,0c0,0,0,0,0,0c0,0,0,0,0-0.1c0,0,0,0,0,0c0,0,0,0,0,0c0,0,0,0,0,0c0,0,0,0,0,0
			c0,0,0,0,0,0c0,0,0,0,0,0c0,0,0,0,0,0c0,0,0,0,0,0c0,0,0,0,0,0l0,0c0,0,0,0-0.1,0c0,0-0.1,0-0.1,0c-0.1,0-0.2-0.1-0.4-0.2
			c0,0,0,0,0.1,0c0,0,0,0-0.1,0c0,0-0.1,0,0,0c0,0-0.1,0-0.1,0c0,0,0,0,0,0l0,0c0,0,0,0,0,0c0,0,0,0,0,0c0,0-0.1,0-0.1,0
			c0,0,0,0-0.1,0c0,0-0.1,0-0.1,0.1c0,0,0,0-0.1,0c0,0,0,0,0,0c0,0,0-0.1,0-0.1c0,0,0,0,0,0c0,0,0,0,0,0c0,0,0,0,0,0c0,0,0,0,0,0
			c0,0,0,0,0,0c0,0,0,0,0,0c0,0,0,0,0-0.1c0,0,0,0,0,0.1c0,0,0,0,0,0c0,0,0,0,0,0.1c0,0,0,0.1,0,0.1l0,0c0,0,0,0,0,0.1c0,0,0,0,0,0
			c0,0,0,0,0,0c0,0,0,0,0,0.1c0,0,0,0,0,0c0,0,0,0,0,0c0,0,0,0,0,0c0,0,0,0.1,0,0.1c0,0,0,0,0,0c0,0,0,0,0,0.1c0,0,0,0,0,0
			c0,0,0,0,0,0c0,0,0,0,0,0c0,0,0,0,0,0c0,0,0,0.1,0.1,0.1c0,0,0,0.1,0.1,0.1c0,0,0,0,0,0.1c0,0,0,0,0,0.1c0,0,0,0,0.1,0.1
			c0,0,0,0,0.1,0.1c0,0,0.1,0.1,0.1,0.1c0,0,0.1,0,0.1,0.1c0,0,0,0,0,0l0,0c0,0,0.1,0,0.1,0c0,0,0.1,0,0.1,0l0.1,0c0,0,0,0,0.1,0
			c0,0,0.1,0,0.1,0c0.1,0,0.1,0,0.1,0.1c0,0,0,0,0.1,0c0,0,0,0,0,0l0,0c0,0,0.1,0.1,0.1,0.1c0.1,0,0.2,0.1,0.3,0.2
			c0.1,0.1,0.2,0.1,0.4,0.2c0,0,0.1,0,0.1,0c0,0,0.1,0,0.1,0c0,0,0.1,0,0.1,0c0,0,0.1,0,0.1,0c0,0,0.1,0.1,0.1,0.1c0,0,0.1,0,0.1,0
			c0,0,0-0.1,0-0.1c0.1,0,0.1,0,0.1,0c0,0,0,0,0.1,0c0,0,0.1,0,0.1,0c0.1,0,0.1,0,0.2,0c0.1,0,0.3,0,0.4,0c0.3,0,0.5,0,0.6,0
			c0.1-0.1,0.2-0.1,0.3-0.2l0,0c0,0,0.1,0,0.1-0.1c0.1,0,0.2-0.1,0.2-0.1c0.1,0,0.2-0.1,0.2-0.1c0,0,0.1,0,0.1-0.1c0,0,0,0,0.1,0
			l0,0c0.1-0.1,0.1,0,0.2-0.1c0,0,0.1-0.1,0.1-0.2l0,0c0,0,0.1-0.1,0.1-0.1c0,0,0,0,0.1-0.1c0,0,0,0,0.1-0.1l0,0
			c0,0,0.1-0.1,0.1-0.1c0,0,0.1-0.1,0.1-0.1c0,0,0.1-0.1,0.1-0.2c0,0,0,0,0-0.1c0,0,0,0,0-0.1c0,0,0,0,0-0.1c0,0,0,0,0,0
			c0,0,0,0,0,0c0,0,0-0.1,0-0.1c0,0,0,0,0,0c0,0,0,0,0,0c0,0,0,0,0,0l0,0c0,0,0,0,0,0c0,0,0,0,0,0c0,0,0,0-0.1,0l0,0c0,0,0,0,0,0
			c-0.1,0-0.1,0-0.1,0c0,0,0,0,0.1,0c-0.1,0,0,0,0,0c0,0,0,0-0.1,0c0,0,0,0,0,0c0,0-0.1,0-0.1,0c0,0,0,0-0.1,0c-0.2,0-0.3,0-0.4-0.1
			c-0.1,0-0.3-0.1-0.4-0.1c0,0,0,0,0,0c0,0,0,0-0.1,0c0,0,0,0-0.1,0c0,0-0.1,0-0.1,0c0,0,0,0,0-0.1c0,0,0,0-0.1,0c0,0,0,0-0.1,0
			c0,0-0.1,0-0.1,0C34.2,32.1,34.1,32.1,34,32C34.1,32.1,34,32.1,34,32z"/>
	</g>
	<g>
		<path class="st5" d="M35.4,31.5C35.4,31.5,35.4,31.5,35.4,31.5C35.4,31.5,35.4,31.5,35.4,31.5z"/>
		<polygon class="st5" points="35.4,31.4 35.4,31.4 35.4,31.4 		"/>
		<path class="st5" d="M33.1,32.6C33.1,32.6,33.1,32.6,33.1,32.6C33.1,32.6,33.1,32.6,33.1,32.6z"/>
		<path class="st5" d="M34.3,31L34.3,31C34.3,31.1,34.3,31,34.3,31C34.3,31.1,34.2,31,34.3,31c-0.1,0-0.1,0-0.1,0c0,0.1,0,0,0,0
			C34.2,31,34.2,31.1,34.3,31L34.3,31c-0.1,0-0.1,0-0.1,0c0,0,0,0-0.1,0c0,0-0.1,0-0.1,0c-0.1,0-0.1,0-0.1,0c0,0,0,0,0.1,0.1
			c0,0,0,0,0,0c-0.1-0.1,0,0-0.1-0.1l0,0.1l0,0c0,0.1,0,0,0,0c0,0,0,0.1,0,0.1c0,0,0,0,0,0.1c0-0.1,0,0.1,0,0c0,0,0,0,0,0.1
			c0,0,0,0,0-0.1c0,0,0,0,0,0l0,0c0,0,0,0,0,0.1l0,0c0,0,0,0,0,0l0,0c0,0,0,0,0,0.1l0,0c0,0,0,0.1,0,0.2c0,0,0,0.1,0,0.1
			c0,0,0,0.1,0,0.1l0,0l0,0.1c0,0,0,0,0,0c0,0,0,0,0,0c0,0,0,0,0-0.1c0,0,0-0.1,0-0.1c0,0,0,0,0,0.1c0,0,0,0,0,0.1c0,0,0,0,0,0.1
			c0,0,0,0.1-0.1,0.1c0,0,0,0.1,0,0.1c0,0,0-0.1,0-0.1c0,0,0,0.1,0,0.1c0,0,0,0,0,0c0,0,0,0,0,0c0,0,0,0,0,0.1c0,0,0,0,0,0l0,0
			c0,0,0,0,0,0c0,0,0,0,0,0.1c0,0,0,0,0,0.1c0,0,0,0.1,0,0.1c0,0,0,0,0,0c0,0,0,0,0,0c0,0,0,0,0,0c0,0,0,0.1,0,0.1c0,0,0,0,0,0.1
			c0,0,0,0,0,0.1c0,0,0,0.1,0,0.1c0,0,0,0,0,0c0,0,0,0,0,0c0,0,0,0,0,0c0,0,0,0,0,0.1c0,0,0,0,0,0c0,0,0,0,0,0.1c0,0,0,0,0,0
			c0,0,0,0,0-0.1c0,0,0,0.1,0,0.1c0,0,0,0,0,0c0,0,0,0,0.1,0.1l0,0c0,0.1,0.1,0.1,0.1,0.1c0,0,0,0,0,0c0,0,0,0,0.1,0.1c0,0,0,0,0,0
			c0,0.1,0.1,0.1,0.1,0.1c0,0,0,0,0,0c0,0,0,0,0.1,0.1c0,0,0,0,0.1,0.1c0,0,0.1,0,0.1,0.1c0,0,0.1,0,0.1,0c0,0,0,0,0.1,0
			c0,0,0,0,0.1,0c0,0,0.1,0,0.1,0c0.1,0,0.1,0,0.1,0l0,0c0.1,0,0.2,0,0.3,0c0.1,0,0.1,0,0.2-0.1c0.1,0,0.1-0.1,0.1-0.1
			c0,0,0.1,0,0.1,0c0,0,0-0.1,0-0.1c0.1,0,0,0,0-0.1c0,0,0,0,0.1-0.1c0,0,0.1-0.1,0.1-0.1c0,0,0,0,0.1,0c0,0,0,0,0.1,0
			c0,0,0.1,0,0.1-0.1c0-0.1,0-0.1,0-0.2l0,0c0,0,0.1-0.1,0.1-0.2c0-0.1,0.1-0.2,0.1-0.2l0,0c0-0.1,0,0,0-0.1c0,0,0-0.1,0-0.1l0,0
			c0,0,0-0.1,0-0.2l0,0c0,0,0-0.1,0-0.1c0,0,0-0.1,0-0.1c0,0,0-0.1,0-0.1c0,0,0-0.1,0-0.2c0,0,0,0,0-0.1l0,0c0,0,0,0,0,0
			c0,0,0,0,0,0l0,0c0,0,0,0,0,0c0,0,0,0,0,0c0,0,0,0,0,0l0,0l0,0c0,0,0,0,0,0l0,0c0,0,0,0,0,0c0,0,0,0,0,0c0,0,0,0,0,0
			c0,0,0,0-0.1,0c0,0,0,0-0.1,0l0,0l0,0c0,0-0.1,0-0.1,0c0,0-0.1,0-0.1-0.1c0,0-0.1,0-0.1-0.1c0,0,0,0-0.1,0c0,0,0,0-0.1,0
			c0,0,0,0,0,0c0,0,0,0-0.1,0c0,0,0,0-0.1,0c0,0,0,0,0,0c0,0,0,0,0,0C34.4,31.1,34.4,31.1,34.3,31C34.4,31.1,34.4,31.1,34.3,31
			C34.3,31,34.3,31,34.3,31z"/>
	</g>
	<g>
		<path class="st5" d="M29,31.7C29,31.7,29,31.7,29,31.7C29,31.7,29,31.7,29,31.7z"/>
		<polygon class="st5" points="28.9,31.7 28.9,31.7 28.9,31.7 		"/>
		<path class="st5" d="M31.4,33.6C31.4,33.6,31.4,33.6,31.4,33.6C31.4,33.6,31.4,33.6,31.4,33.6z"/>
		<path class="st5" d="M28.4,33.3L28.4,33.3C28.5,33.3,28.4,33.4,28.4,33.3c0.1,0.1,0.1,0.1,0.1,0.1c0,0,0,0.1,0,0.1c0,0,0,0,0,0.1
			c0,0,0,0,0.1,0c0,0,0,0,0,0l0,0c0,0,0,0.1,0,0.1c0,0,0.1,0.1,0.1,0.1c0,0.1,0.1,0.1,0.1,0.2C29,34,29,34,29.1,34c0,0,0.1,0,0.1,0
			c0-0.1,0,0,0-0.1c0,0,0,0,0,0c-0.1,0.1,0,0.1,0,0.2l0-0.1l0,0c0.1,0,0,0,0.1,0c0,0,0.1-0.1,0.1,0c0,0,0,0,0-0.1c0,0.1,0,0,0,0
			c0,0,0,0,0.1-0.1c0,0,0,0.1,0,0.1c0,0,0,0,0,0l0,0c0,0,0,0.1,0.1,0l0,0c0,0,0,0,0,0.1l0,0c0,0,0.1,0,0.1,0l0,0
			c0,0,0.1-0.1,0.2-0.1c0.1,0,0.2-0.1,0.2-0.1l0-0.1l0.1,0c0,0-0.1,0.2-0.1,0.1c0,0,0.2,0,0.3,0c0.1,0,0.3,0,0.3,0c0,0,0,0.1,0,0.1
			c0,0,0,0,0.1,0c0,0,0,0,0,0c0,0,0,0,0,0c0,0,0,0,0-0.1c0,0,0,0,0,0l0,0c0,0,0,0,0,0c0,0,0,0,0.1,0c0,0,0.1,0,0.1,0
			c0,0,0.1,0,0.1,0c0,0,0,0,0,0c0,0,0,0,0,0c0,0,0,0,0,0c0,0,0.1,0,0.1,0c0,0,0.1,0,0.1,0c0,0,0,0,0,0c0,0,0,0,0.1-0.1c0,0,0,0,0,0
			c0,0,0,0,0,0c0,0,0,0,0,0.1c0,0,0-0.1,0-0.1c0,0,0,0,0,0c0-0.1,0,0,0-0.1c0,0,0,0,0,0c0,0,0,0,0,0.1c0,0,0-0.1,0-0.1
			c0,0,0,0,0-0.1c0,0,0-0.1,0-0.1l0,0c0-0.1,0-0.1,0-0.2c0,0,0,0,0,0c0,0,0-0.1,0-0.1c0,0,0,0,0,0c0-0.1,0-0.1,0-0.1c0,0,0,0,0,0
			c0-0.1-0.1-0.3-0.1-0.4c0,0,0,0,0,0c0,0,0,0,0,0c0,0,0-0.1-0.1-0.1c0,0-0.1-0.1-0.1-0.1l0,0c-0.1-0.1-0.1-0.2-0.2-0.2
			c-0.1-0.1-0.2-0.1-0.3-0.1c0-0.1,0-0.1,0-0.1c0,0,0,0.1,0,0.1c-0.1,0,0,0-0.1,0c0,0-0.1,0-0.1,0c0,0-0.1,0-0.1-0.1
			c-0.1,0-0.1-0.1-0.2-0.1c0,0,0,0,0,0c0,0,0,0,0,0c0,0,0,0,0,0l0,0c0,0,0,0,0,0c0,0,0,0,0,0c0,0,0,0,0,0c0,0,0,0,0,0c0,0,0,0,0,0
			c0,0,0,0,0,0l0,0c0,0,0,0,0,0c0,0,0,0,0,0l0,0l0,0l0,0L29.5,32l0,0l0,0l0,0l0,0c0,0,0,0,0,0l0,0c0,0,0,0,0,0c0,0,0,0,0,0
			c0,0,0,0,0,0l0,0c0,0,0,0,0,0c0,0,0,0,0,0l0,0c0,0,0,0-0.1,0c0,0-0.1,0-0.1,0l0,0c0,0-0.1,0-0.1,0c0,0,0,0,0,0c0,0,0,0,0,0
			c0,0,0,0,0,0c0,0,0,0,0,0c0,0,0,0,0-0.1c0,0,0,0,0-0.1l0,0c0,0,0,0,0,0c0,0,0,0,0,0l0,0c0,0,0,0,0,0c0,0,0,0,0,0c0,0,0,0-0.1,0
			l0,0c0,0,0,0,0,0c0,0-0.1,0-0.1,0c0,0,0,0,0.1,0c0,0,0,0,0,0c0,0,0,0-0.1,0c0,0,0,0,0,0c0,0-0.1,0-0.1,0c0,0,0,0-0.1,0
			c0,0,0,0-0.1,0c0,0,0,0-0.1,0c0,0-0.1,0-0.1,0.1c0,0-0.1,0.1-0.1,0.1c0,0,0,0,0,0c0,0,0,0,0,0.1c-0.1,0.1-0.1,0.3-0.2,0.5
			c0,0,0,0,0,0c0,0.1,0,0.1,0,0.2c0,0,0,0.1,0,0.1c0,0,0,0.1,0,0.1c0,0,0,0,0,0c0,0,0,0,0,0c0,0,0,0,0,0c0,0,0,0,0,0c0,0,0,0,0,0.1
			c0,0,0,0.1,0,0.1c0,0,0,0.1,0,0.1C28.4,33.2,28.4,33.2,28.4,33.3C28.4,33.3,28.4,33.3,28.4,33.3z"/>
	</g>
	<g>
		<path class="st6" d="M35.5,31.9"/>
	</g>
	<path class="st4" d="M32.6,35.3c0.5,0.1,1,0.2,1.5,0.2c1,0.1,2,0,3-0.3c0.5-0.2,0.9-0.5,1.3-0.8c0.4-0.4,0.7-1,0.8-1.6
		c0.1-0.5,0.2-1,0-1.5c-0.1-0.3-0.4-0.6-0.7-0.8c-0.3-0.2-0.6-0.3-1-0.3c-0.1,0-0.3,0-0.4,0c-0.1,0-0.2,0-0.2,0c0,0,0,0,0,0
		c0,0.1,0.1,0.1,0.1,0.2c0.9-0.3,2.7-1.3,1.7-2.4c-0.6-0.7-1.6-1-2.5-1c-0.9,0-1.9,0.2-2.5,0.8c-0.1,0.1-0.2,0.3-0.3,0.4
		c0,0,0,0.1-0.1,0.1c0,0,0,0,0,0c0,0,0,0,0,0c0,0,0,0,0,0c0,0,0,0,0,0c0.1,0,0.3,0,0.4,0c0,0,0,0,0,0c0,0,0,0,0,0
		c0-0.1,0-0.1,0.1-0.2c0.2-0.5,0.3-1,0.5-1.5c0.2-0.6,0.3-1.2,0.3-1.8c0-0.5-0.2-0.9-0.7-1c-0.4-0.1-0.8-0.1-1.1-0.1
		c-0.4,0-0.7,0.1-1.1,0.2c-0.8,0.3-1.3,1-1.7,1.7c-0.1,0.3-0.3,0.5-0.4,0.8c-0.1,0.1,0.4,0.1,0.4,0c0.3-0.8,0.8-1.7,1.5-2.2
		c0.5-0.4,1.2-0.4,1.8-0.3c0.2,0,0.3,0,0.4,0.1c0.1,0,0.1,0.1,0.2,0.1c0.1,0.2,0.2,0.4,0.2,0.6c0.1,0.6-0.1,1.2-0.2,1.7
		c-0.1,0.5-0.3,1-0.5,1.5c0,0.1-0.1,0.2-0.1,0.3c0,0.1,0.1,0.1,0.2,0.1c0.1,0,0.2-0.1,0.2-0.1c0.1-0.2,0.2-0.4,0.4-0.6
		c0.3-0.2,0.7-0.4,1.1-0.5c0.8-0.2,1.8-0.1,2.5,0.4c0.3,0.2,0.7,0.5,0.8,0.9c0.1,0.3,0,0.6-0.2,0.8c-0.4,0.4-0.9,0.7-1.4,0.9
		c0,0-0.1,0-0.1,0c-0.2,0.1-0.1,0.2,0.1,0.2c0,0,0.1,0,0.1,0c0,0,0.1,0,0.1,0c0.1,0,0,0,0,0c0,0,0.1,0,0.1,0c0.3,0,0.5,0.1,0.8,0.2
		c0.3,0.1,0.6,0.3,0.8,0.6c0.2,0.4,0.3,0.8,0.2,1.3c-0.1,1.1-0.7,2.1-1.7,2.6c-0.8,0.4-1.7,0.5-2.6,0.4c-0.3,0-0.7-0.1-1.1-0.1
		c-0.1,0-0.2,0-0.4-0.1c0,0,0,0-0.1,0c0,0,0,0,0,0c0,0,0,0,0,0c0,0,0,0-0.1,0c0,0,0,0,0,0c-0.1,0-0.2,0-0.3,0
		C32.5,35.2,32.5,35.3,32.6,35.3L32.6,35.3z"/>
</g>
<g>
	<g>
		<path class="st5" d="M11.4,34.6C11.4,34.6,11.4,34.6,11.4,34.6c0.1-0.1,0.1-0.2,0.1-0.2C11.5,34.5,11.4,34.5,11.4,34.6z"/>
		<polygon class="st5" points="11.5,34.4 11.5,34.4 11.5,34.4 		"/>
		<path class="st5" d="M11.6,34.2C11.6,34.2,11.5,34.2,11.6,34.2C11.5,34.2,11.6,34.2,11.6,34.2z"/>
		<path class="st5" d="M10.1,30.9L10.1,30.9c-0.1,0-0.1,0-0.1-0.1c0,0,0-0.1-0.1-0.1c-0.1,0-0.1,0-0.2-0.1c-0.1-0.1-0.1-0.1-0.2-0.1
			c0,0-0.1-0.1,0-0.1c-0.1,0.1-0.1,0-0.1,0c0,0,0,0,0,0.1c0,0-0.1,0-0.1,0c0,0,0-0.1,0-0.1c-0.1,0-0.2-0.1-0.4-0.2
			c-0.2-0.1-0.3-0.2-0.5-0.3c0,0,0,0-0.1,0c0,0-0.1,0-0.1,0c-0.1,0-0.2-0.1-0.3-0.1c-0.1,0-0.3-0.1-0.4-0.1c-0.1,0-0.2,0-0.2,0
			c-0.1,0-0.2,0-0.2,0c-0.1,0-0.1,0-0.2,0c-0.1,0-0.1,0-0.2,0.1c-0.1,0-0.2,0.1-0.3,0.1C6.2,29.9,6.1,30,6,30.1c0.1,0,0.1,0,0.2-0.1
			c0,0,0.1,0,0.1,0c0,0,0.1,0,0.1,0c0,0-0.1,0.1-0.1,0.1c0,0-0.1,0-0.1,0c-0.1,0-0.1,0-0.1,0.1c0,0-0.1,0-0.1,0c0,0-0.1,0-0.1,0.1
			c0,0-0.1,0.1-0.1,0.1c0,0-0.1,0-0.1,0c0,0,0,0.1,0,0.1l-0.1,0c-0.1,0.1-0.1,0.2-0.1,0.3c0,0,0,0.1,0,0.1c0,0,0,0,0,0
			c0,0,0,0-0.1,0.1c0,0,0,0,0,0c0,0,0,0,0,0c0,0,0,0,0,0c0,0,0,0.1-0.1,0.1c-0.1,0.2-0.1,0.3-0.1,0.4c0,0.1,0,0.2-0.1,0.3
			c0,0,0.1-0.1,0.1,0c0,0,0,0.1,0,0.1c0,0,0,0.1,0,0.1C5,32,5,32,5,32c0,0,0,0.2,0,0.2c0,0.1,0,0.2,0.1,0.1c0,0-0.1,0.1-0.1,0.2
			c0,0.1,0,0.1-0.1,0c0,0,0,0.1,0,0.1c0,0,0,0.1,0,0.1c0,0.1,0,0.1,0,0.2c0-0.1,0-0.1,0-0.2c0,0.1,0,0.2,0.1,0.3c0,0,0,0.1,0,0.1
			c0,0,0,0.1,0,0.1c0,0,0,0.1,0.1,0.1c0,0,0,0.1,0.1,0.1c0,0,0.1,0.1,0.1,0.1c0,0,0.1,0.1,0.1,0.1c0,0,0-0.1,0-0.1c0,0,0-0.1,0-0.1
			c0,0.1,0.1,0.1,0.1,0.2c0,0.1,0.1,0.1,0.1,0.2C5.7,34,5.8,34,5.8,34.1C5.7,34,5.6,34,5.5,33.9C5.6,34,5.6,34,5.7,34
			c0,0,0.1,0.1,0.1,0.1c0.1,0.1,0.2,0.1,0.3,0.1c0.2,0.1,0.3,0.1,0.4,0.1c0,0-0.1,0-0.1,0c0,0,0.1,0,0.2,0c0,0,0.1,0,0.1,0
			c0,0,0,0,0.1,0c0.1,0,0.2,0,0.3,0c0.2,0,0.5,0,0.6-0.1l0-0.1l0.1,0c0,0-0.1,0.2-0.1,0.2c0.1,0,0.5,0,0.9,0.1c0.4,0,0.8,0,0.9,0
			c0.1,0,0,0.1,0,0.1c0.1,0,0.1,0,0.2,0c0,0,0,0,0,0c0,0,0.1,0,0.1,0c-0.1,0,0-0.1,0-0.1c0,0,0.1,0,0.1,0l0,0c0,0,0,0,0.1,0
			c0,0,0.1,0,0.1,0c0.2,0,0.4,0,0.7,0c0,0-0.1,0-0.1,0c0,0,0.1,0,0.1,0c0,0,0.1,0,0.1,0c0.1,0,0.2,0,0.3,0c0.1,0,0.2,0,0.3,0
			c0,0,0,0,0.1-0.1c0,0,0.1-0.1,0.1-0.1c0,0,0.1,0,0.1,0c0,0,0,0,0,0c0,0,0.1,0.1,0.1,0.1c0,0-0.1-0.1-0.1-0.1l0,0
			c-0.1-0.1,0,0-0.1-0.1c0,0,0,0,0,0c0,0,0.1,0.1,0.1,0.1c-0.1-0.1-0.1-0.1-0.1-0.1c-0.1-0.1,0,0-0.1-0.1c0,0-0.1-0.1-0.2-0.2l0,0
			c-0.1-0.1-0.1-0.1-0.2-0.1c-0.1,0-0.1-0.1-0.2-0.1l0,0c0,0-0.1-0.1-0.2-0.2c0,0,0,0.1,0,0c-0.1-0.1-0.2-0.1-0.2-0.2c0,0,0,0-0.1,0
			c-0.2-0.1-0.6-0.4-1-0.6c-0.1,0-0.1-0.1-0.2-0.1c-0.1,0-0.1-0.1-0.2-0.1c-0.1,0-0.2-0.1-0.3-0.1c-0.2-0.1-0.3-0.1-0.4-0.2l0,0
			C8.2,32.1,8.1,32,8,32c-0.1,0-0.2-0.1-0.3-0.1c-0.1,0-0.2-0.1-0.3-0.1c-0.1,0-0.1,0-0.2-0.1c0,0,0,0-0.1,0c0,0,0,0,0,0l0,0l0,0
			l0,0l0,0.1l0,0.1l0,0.1c-0.1,0.2-0.1,0.3-0.1,0.4C7,32.4,7,32.5,7,32.5c0,0,0,0,0,0l0,0l0,0l0,0c0,0,0,0,0,0l0,0l0,0c0,0,0,0,0,0
			c0,0,0,0,0,0l0,0l0,0c0,0,0,0,0,0c0,0,0,0,0,0c0,0,0,0,0,0c0,0,0,0,0,0c0,0,0,0,0,0c0,0,0,0,0,0c0,0,0,0,0,0c0,0,0,0,0.1,0
			c0.1,0,0.3,0,0.5,0c0,0,0.1,0,0.1,0l0,0l0,0c0,0,0,0,0,0c0,0,0,0,0,0c0,0,0,0,0,0c0,0,0,0,0,0c0,0,0,0,0,0c0,0,0,0,0,0
			c0,0,0,0,0,0l0,0c0,0,0,0,0,0c0,0-0.1,0-0.1,0c0,0,0,0,0,0c0,0,0,0,0,0c0,0,0,0,0,0c0,0,0,0,0,0c0,0,0,0,0,0c0,0,0,0,0,0l0,0l0,0
			c0,0,0,0,0,0c0,0,0,0-0.1-0.1C7.6,32.2,7.6,32,7.5,32c0-0.1,0-0.2,0-0.1l0,0l0,0l0,0l0,0l0,0l0,0c0,0,0,0,0,0c0,0,0,0,0,0l0,0l0,0
			l0,0c0,0,0,0,0,0.1c0,0,0,0,0,0.1l0,0.1l0,0.1l0,0.1l0,0l0,0l0,0l0,0l0,0c0,0,0,0,0,0c0,0,0,0,0.1,0c0,0,0,0,0.1,0
			c0,0,0.1,0,0.1,0c0.1,0,0.2,0.1,0.2,0.1c0,0,0.1,0,0.1,0c0,0,0.1,0,0.1,0c0.1,0,0.1,0,0.1,0.1c0,0,0.1,0,0.1,0c0,0,0.1,0,0.1,0
			c0.1,0,0.1,0,0.2,0l0,0c0,0,0.1,0,0.2,0.1c0,0,0.1,0,0.1,0.1c0,0,0.1,0,0.1,0.1c0,0,0.1,0.1,0.1,0.1c0,0,0.1,0.1,0.1,0.1
			c0,0,0.1,0,0.1,0.1c0,0,0.1,0,0.1,0l0,0c0.1,0,0.1,0.1,0.1,0.1c0,0,0,0.1,0.1,0.1c0-0.1,0.2,0,0.2,0l0,0c0.1,0,0.3,0.1,0.4,0.2
			l0,0c0.1,0.1,0.3,0.2,0.3,0.3c0.1,0.1,0.2,0.2,0.3,0.2c0.1,0.1,0.2,0.2,0.3,0.2c0,0,0.1,0.1,0.1,0.1c0,0,0,0,0,0c0,0,0,0,0,0
			c0,0,0,0,0,0c0,0,0,0,0,0.1l0,0c0,0,0,0,0,0c0,0,0,0,0-0.1c0,0,0,0,0,0c0,0,0,0,0-0.1l0,0c0,0,0-0.1,0-0.1c0-0.1,0-0.2,0-0.1
			c0,0,0,0.1,0,0.1c0-0.1,0-0.1,0-0.1c0,0,0,0,0,0.1c0,0,0-0.1,0-0.1c0,0,0,0,0,0c0-0.1,0-0.1,0-0.2c0-0.1,0,0,0-0.1
			c0-0.1,0-0.1,0-0.2c0-0.1,0-0.1,0-0.2c0-0.1,0-0.3-0.1-0.4c-0.1-0.3-0.1-0.6-0.3-0.8c0,0,0,0,0,0c0-0.1-0.1-0.2-0.1-0.2
			c0,0,0-0.1-0.1-0.1c0,0,0-0.1-0.1-0.1c0-0.1,0-0.1,0-0.1c0,0,0,0-0.1-0.1c0,0-0.1-0.1-0.1-0.1c0,0-0.1-0.1-0.1-0.2
			c0-0.1-0.1-0.1-0.1-0.2c0,0-0.1-0.1-0.1-0.1C10.2,31,10.1,30.9,10.1,30.9z"/>
	</g>
	<g>
		<path class="st5" d="M9.4,34c0,0-0.1-0.1-0.2-0.1C9.3,33.9,9.3,33.9,9.4,34z"/>
		<polygon class="st5" points="9.2,33.9 9.2,33.9 9.2,33.9 		"/>
		<path class="st5" d="M10,34.7C10,34.7,10,34.7,10,34.7C10,34.7,10,34.7,10,34.7z"/>
		<path class="st5" d="M3.5,32.6l0.2,0.1c-0.2,0-0.2-0.1-0.4,0c0,0,0,0,0,0l0,0c0,0,0,0,0,0l0,0c0,0,0,0-0.1,0c0,0-0.1,0-0.2,0
			c0,0-0.1,0-0.1,0c0,0,0,0-0.1,0l0,0c0,0,0,0,0,0l0,0l0,0l0,0c0,0,0,0,0,0c-0.1,0-0.1,0-0.1,0.1c0,0-0.1,0-0.1,0c0.1,0.1,0,0,0,0.1
			c0,0,0,0,0.1,0c0,0,0,0,0,0l0,0c-0.1,0-0.1,0-0.1,0c0,0,0,0-0.1,0c0,0,0,0-0.1,0c0,0-0.1,0-0.1,0.1c0,0,0,0,0,0c0,0,0,0,0,0
			c0,0,0,0-0.1,0l0,0l0,0c0,0,0,0,0,0l0,0c0,0,0,0,0,0c0,0,0,0-0.1,0c0,0,0,0-0.1,0.1c0,0,0,0-0.1,0.1c-0.1,0.1-0.2,0.2-0.2,0.3
			c0,0.1-0.1,0.1-0.1,0.2c0,0,0,0.1,0,0.1c0,0,0,0.1,0,0.1c0,0,0,0.1,0,0.1c0,0,0,0.1,0,0.1c0,0,0,0,0,0.1c0,0,0,0,0,0.1
			c0,0,0-0.1,0.1-0.1c0,0,0-0.1,0.1-0.1c0,0,0,0.1,0,0.1c0,0,0,0,0,0.1c-0.1,0-0.1,0.1-0.1,0.1c0,0.1,0,0.1-0.1,0.2l0.1,0l-0.1,0.1
			c0,0.1,0.1,0.2,0.1,0.2c0,0,0,0,0,0c0,0,0,0,0,0c0,0,0,0.1,0,0.1c0,0.1,0.1,0.1,0.1,0.1c0,0,0.1,0,0.1,0.1c0,0,0.1,0,0.1,0
			c0,0,0,0,0,0c0,0,0.1,0,0,0c0,0,0.1,0.1,0.2,0c0,0,0,0-0.1,0c0,0,0,0-0.1,0c0,0,0,0,0,0.1l0,0c0,0,0,0,0,0.1c0,0,0,0,0,0
			c0,0,0,0.1,0.1,0.1l0,0c0,0,0.1,0,0.1,0.1c0,0,0,0-0.1,0.1l-0.1,0c0,0,0,0,0.1,0.1c0,0,0,0,0.1,0.1c0,0,0.1,0.1,0.2,0.1l0,0
			c0,0,0,0,0.1,0c0,0,0,0,0.1,0c0.1,0,0.1,0,0.2,0.1c0,0,0.1,0,0.1,0c0,0,0.1,0,0.1,0c0,0,0,0,0.1,0c0,0,0,0,0.1,0c0,0,0.1,0,0.1,0
			c0,0,0.1,0,0.2,0c0.1,0,0.1,0,0.2,0c0,0,0.1,0,0.2,0c0.1,0,0.1,0,0.2,0C4,36,4,36,4,36c0,0,0.1,0,0.1,0c0.1,0,0.1,0,0.2,0
			c0.1,0,0.2,0,0.2,0c0,0,0-0.1,0-0.1l0.2,0c0.1,0,0.1,0,0.2,0c0,0-0.1,0-0.3,0.1c-0.1,0-0.1,0-0.2,0.1c0,0-0.1,0-0.1,0
			c0,0,0.1,0,0.1,0c0.1,0,0.1,0,0.2,0c0.1,0,0.3,0,0.5,0.1c0.1,0,0.2,0,0.3,0c0,0,0.1,0,0.1,0c0,0,0.1,0,0.1,0c0.1,0,0.1,0,0.2,0
			c0.1,0,0.1,0,0.2,0c0,0,0.1,0,0.1,0c0,0,0.1,0,0.1,0c0.1,0,0.1,0,0.2,0c0.1,0,0.1,0,0.2,0l0,0l0,0c0,0,0,0,0,0l0.1,0l0.1,0
			c0,0,0.1,0,0.1,0c0.1,0,0.2,0,0.3,0c0.2,0,0.4,0,0.5,0c0,0,0,0,0.1,0c0,0,0,0,0.1,0c0,0,0,0,0,0c0,0,0,0,0,0c0,0,0.1,0,0.1,0
			c0.1,0,0.1,0,0.2,0c0.1,0,0,0.1,0,0.1c0.1,0,0.1-0.1,0.2-0.1c0,0,0,0,0,0c0.1,0,0.1,0,0.1,0c-0.1,0,0-0.1-0.1-0.1
			c0.1,0,0.1,0,0.2,0l0,0c0,0,0,0,0.1-0.1c0,0,0.1-0.1,0.2-0.1c0.1,0,0.3-0.1,0.4-0.2c0.1-0.1,0.2-0.1,0.3-0.2c0,0,0,0.1-0.1,0.1
			c0,0,0.1-0.1,0.1-0.1c-0.1,0,0.1-0.1,0-0.1c0.1-0.1,0.2-0.1,0.2-0.2c0.1-0.1,0.1-0.2,0.2-0.2c0,0,0,0,0-0.1c0,0,0-0.1,0-0.1
			c0,0,0-0.1,0-0.1c0,0,0,0,0,0c0,0,0.1,0,0.1,0c0,0-0.1,0-0.2,0l0,0c-0.1,0,0,0-0.1,0c0,0,0,0,0.1,0c0,0,0.1,0,0.1,0
			c0,0-0.1,0-0.1,0c0,0-0.1,0-0.1,0c0,0,0,0,0,0c0,0,0,0-0.1,0c-0.1,0-0.1,0-0.2,0l0,0c0,0-0.1,0-0.1,0c0,0-0.1,0-0.1,0
			c0,0-0.1,0-0.1,0c0,0-0.1,0-0.1,0c0,0,0,0,0,0c0,0-0.1,0-0.1,0c0,0,0,0-0.1,0c0,0,0,0-0.1,0c0,0,0.1,0,0,0c-0.1,0-0.2,0-0.2-0.1
			l-0.1,0c0,0,0,0-0.1,0c0,0-0.1,0-0.1,0c0,0-0.1,0-0.1,0c0,0-0.1,0-0.1,0c-0.1,0-0.2-0.1-0.3-0.1l0,0l0,0c0,0,0,0,0,0l0,0l0,0l0,0
			l0,0c0,0,0,0,0,0l0,0l0,0l0,0c0,0-0.1,0-0.2,0l0,0c-0.1,0-0.1,0-0.2,0c-0.1,0-0.2,0-0.4,0c0.1,0,0.1,0,0.1,0c-0.1,0-0.2,0-0.2,0
			c0,0,0,0-0.1,0c0,0,0,0-0.1,0c0,0-0.1,0-0.1,0c0,0,0,0,0-0.1c0,0,0-0.1,0.1-0.1c0,0,0.1,0,0.1,0c0,0,0.1,0,0.1,0c0,0,0,0,0,0
			c0,0,0,0,0,0l0,0l0,0l0,0l0,0c0,0,0,0,0,0l0,0c0,0,0,0,0,0c0,0,0,0,0,0c0,0,0.1,0,0.1,0c-0.1,0-0.1,0,0,0c0,0,0,0,0,0c0,0,0,0,0,0
			c0,0,0,0,0,0l0,0c0,0,0,0,0,0l0,0l0,0l0.1,0l0,0c0,0,0,0,0,0c0,0,0,0,0,0c0,0,0,0-0.1,0c0,0-0.1,0-0.1,0c0,0,0,0,0,0l0,0l0,0
			c0,0,0,0,0,0l0,0l0,0c0,0,0,0,0,0c0,0,0,0,0,0c0,0,0,0,0.1,0c0,0,0.1,0,0.1,0c0,0,0.1,0,0.1,0l0,0c0,0,0.1,0,0.1,0c0,0,0,0,0,0
			c0,0,0,0,0,0c0,0,0,0,0,0c0,0,0,0,0,0c0,0,0,0,0,0l0,0c0,0,0,0,0.1,0.1c0,0,0.1,0.1,0.1,0.1l0,0c0,0,0,0,0,0c0,0,0,0,0,0
			c0,0,0,0,0,0c0,0,0,0,0.1,0c0,0,0.1,0,0.1,0c0.1,0,0.2,0,0.2,0c0.1,0,0.2,0,0.4,0c0.1,0,0.3-0.1,0.4-0.1c0.1,0,0.1,0,0.2,0l0,0
			c0,0,0,0,0,0c0,0,0,0,0.1,0l0,0c0,0,0,0,0,0c0,0,0,0-0.1,0c0,0-0.1,0-0.1-0.1l0,0l-0.1,0c-0.1-0.1-0.1-0.1-0.1-0.1l0.1,0.1
			c-0.1-0.1,0,0,0,0c0,0-0.1,0-0.1-0.1c0,0,0,0,0,0c0,0-0.1-0.1-0.2-0.1c-0.1,0,0,0-0.1-0.1c-0.3-0.2-0.5-0.3-0.8-0.5L8,33.1l0,0
			l0,0c0,0,0,0,0,0l0,0l0,0l-0.1,0c-0.2,0-0.4-0.1-0.5-0.1c-0.2,0-0.4-0.1-0.5-0.1c-0.1,0-0.2,0-0.3-0.1l-0.1,0l-0.1,0
			c0,0,0,0-0.1,0c0,0,0,0,0,0c0,0,0,0,0,0c0,0,0,0,0,0c0,0-0.1,0-0.1,0c0,0-0.1,0-0.1,0c-0.1,0-0.1,0-0.2,0c-0.1,0-0.1,0-0.2,0
			c-0.1,0-0.1,0-0.2,0c-0.1,0-0.1,0-0.2,0c0,0-0.1,0-0.1,0c-0.1,0-0.2,0-0.3,0c-0.1,0-0.2-0.1-0.3-0.1c0,0,0,0,0,0c0,0,0,0-0.1,0
			c0,0,0,0,0,0c0,0,0,0-0.1,0c-0.1,0-0.2,0-0.2,0c-0.1,0-0.2,0-0.2,0l0,0c0,0,0,0,0,0c0,0,0,0-0.1,0c0,0-0.1,0-0.1,0
			c-0.1,0-0.1,0-0.2,0C3.5,32.6,3.5,32.6,3.5,32.6z"/>
	</g>
	<g>
		<path class="st5" d="M9.4,35.2c0,0-0.1-0.1-0.2-0.1C9.2,35.1,9.3,35.1,9.4,35.2z"/>
		<polygon class="st5" points="9.2,35 9.2,35 9.2,35 		"/>
		<path class="st5" d="M9.4,35.6C9.3,35.6,9.3,35.6,9.4,35.6C9.3,35.6,9.3,35.6,9.4,35.6z"/>
		<path class="st5" d="M4.7,33.9L4.7,33.9c-0.3,0.2-0.1,0-0.5,0.1c0,0.1-0.1,0.1-0.3,0.1c-0.1,0-0.1,0-0.2,0c0,0-0.1,0-0.1,0
			c0,0,0,0,0,0c0,0,0,0,0,0c0,0-0.2,0-0.2,0c0,0,0,0,0,0c0,0,0,0,0,0c0,0,0,0,0,0c0,0-0.1,0-0.1,0.1c0,0,0,0,0.1,0l-0.1,0.1
			c0,0,0,0-0.1,0.1c0,0,0,0,0,0c0,0,0,0,0,0c0,0,0,0,0,0c0,0,0,0,0,0c0,0-0.1,0-0.1,0.1c0,0,0,0-0.1,0c0,0,0,0,0,0c0,0,0,0,0,0
			c0,0,0,0-0.1,0c0,0,0,0,0,0c0,0,0,0,0,0l0,0c0,0,0,0,0,0l0,0c0,0,0,0,0,0c0,0,0,0,0,0l0,0l0,0c0,0,0,0-0.1,0.1c0,0,0,0,0,0
			c0,0,0,0,0,0c0,0,0,0,0,0c0,0,0,0,0,0c0,0,0,0,0,0l0,0c0,0,0,0,0,0c0,0.1-0.1,0.1-0.1,0.2c0,0.1-0.1,0.1-0.1,0.2
			c-0.1,0.1-0.2,0.2-0.2,0.4c-0.1,0.1-0.1,0.2-0.1,0.4c0,0,0,0.1,0,0.1c0,0,0,0.1,0,0.1c0,0,0,0.1,0,0.1c0,0,0,0,0,0c0,0,0,0,0,0
			c0,0.1,0,0.2,0,0.2c0,0,0-0.1,0.1-0.1c0,0,0-0.1,0.1-0.1c0,0.1,0,0.1,0,0.1c0,0,0,0.1,0,0.1c-0.2,0.1,0,0.3-0.2,0.4l0.1,0
			l-0.1,0.1c0,0.2,0.1,0.2,0.1,0.3c0,0,0,0,0,0.1c0,0,0,0,0,0c0,0,0,0,0.1,0.1c0.1,0.1,0.2,0.1,0.3,0.2c0.1,0,0.1,0.1,0.2,0.1
			c0,0,0-0.1,0.1,0c0,0,0,0,0,0.1c0,0,0.1,0,0.1,0.1c0,0,0.1,0.1,0.1,0.1c0.1,0,0.1,0,0.1,0c0,0,0,0.1,0,0.1c0,0,0,0-0.1,0
			c0,0,0.1,0.1,0.1,0.1c0,0,0,0,0-0.1c0.1,0.1,0.2,0.1,0.2,0.1c0,0,0,0,0,0c0,0,0,0,0.1,0c0,0,0.1,0,0.2,0l0-0.1c0,0,0.1,0,0.1,0
			c0,0,0,0,0,0c0,0,0,0,0,0c0,0,0.1,0.1,0,0.1l-0.2,0c0.1,0,0.1,0,0.2,0.1c0,0,0.1,0,0.1,0c0,0,0,0,0,0c0,0,0,0,0,0
			c0.1,0,0.1,0,0.2,0c0,0,0.1,0,0.1,0c0,0,0.1,0,0.1,0c0,0-0.1,0-0.1,0c0.2,0,0.7,0,1.2,0c0.1,0,0.3,0,0.4,0c0.1,0,0.2,0,0.3,0
			c0.1,0,0.2,0,0.3,0c0,0,0,0,0,0c0,0,0,0,0,0c0,0,0,0,0,0c0,0,0,0,0,0c0,0,0,0,0,0c0,0,0,0,0,0c0,0,0,0,0,0l0,0c0,0,0,0,0,0l0,0
			c0,0,0,0,0,0l0,0c0,0,0,0,0,0l0,0l0,0l0,0l0,0c0,0,0,0,0,0l0,0c0,0,0,0,0,0l0,0l0,0c0,0,0,0,0,0l0.1,0c0,0-0.1,0.2-0.1,0.2
			c0.1,0,0.6,0,1.1,0c0.1,0,0.1,0,0.2,0c0.1,0,0.1,0,0.2,0c0.1,0,0.2,0,0.3,0c0.1,0,0.1,0,0.1,0c0,0,0.1,0,0.1-0.1
			c0.2-0.1,0.3-0.2,0.4-0.2c0,0,0,0,0.1-0.1c0,0,0,0,0,0c0,0,0.1-0.1,0.1-0.1c0.1-0.1,0.1,0,0.1,0C8.9,38,8.9,38,8.9,38
			c0,0,0,0,0-0.1c0,0,0,0,0,0.1c0-0.1,0.1-0.1,0.1-0.1c-0.1,0.1-0.1,0-0.1,0c0-0.1,0.1-0.1,0.1-0.2l0,0c0,0,0-0.1,0-0.1
			c0,0,0-0.1,0-0.2c0.1-0.2,0.2-0.5,0.2-0.7c0,0,0,0.1,0,0.1c0,0,0-0.1,0-0.1c0,0,0-0.1,0-0.1c0-0.1,0-0.2,0-0.3c0-0.1,0-0.2,0-0.3
			c0,0,0,0,0-0.1c0,0,0-0.1,0-0.1c0,0,0-0.1,0-0.1c0,0,0,0,0,0c0,0,0.1-0.1,0.1-0.1c0,0-0.1,0.1-0.1,0.1l0,0c-0.1,0.1,0,0-0.1,0.1
			c0,0,0.1-0.1,0.2-0.1c-0.1,0.1-0.1,0.1-0.2,0.1c-0.1,0.1,0,0-0.1,0.1c0,0-0.1,0-0.1,0.1c0,0-0.1,0.1-0.1,0.1l0,0
			c0,0-0.1,0.1-0.1,0.1c0,0-0.1,0-0.1,0.1c-0.1,0-0.1,0.1-0.2,0.1l0,0c-0.1,0-0.1,0.1-0.2,0.2c0,0,0.1,0,0,0
			c-0.1,0.1-0.2,0.1-0.3,0.2l0,0.1c0,0-0.1,0.1-0.2,0.1c-0.1,0-0.1,0.1-0.2,0.1c0,0,0,0,0,0c0,0,0,0,0,0c0,0,0,0,0,0l0,0l0,0
			c0,0,0,0,0,0c0,0,0,0,0,0l0,0c0,0,0,0,0,0c0,0,0,0,0,0l0,0l0,0c0,0,0,0,0,0c0,0,0,0,0,0l0,0l0,0l0,0l0,0c0,0,0,0,0,0
			c0-0.1,0-0.2,0-0.3c0,0,0,0-0.1,0c0,0-0.1,0-0.1,0c0,0-0.1,0-0.1,0c-0.1,0-0.2-0.1-0.3-0.1c-0.2-0.1-0.4-0.1-0.5-0.1l0,0
			c0,0,0,0-0.1,0c0,0,0,0,0,0l0,0l0,0l0,0c0,0,0,0,0,0c0,0,0,0,0,0c0,0,0,0,0,0c0,0-0.1,0-0.1,0c-0.1,0-0.2,0-0.3,0c0,0,0.1,0,0.1,0
			c0,0,0,0,0,0c0,0,0,0,0,0c0,0,0,0,0,0c0,0-0.1,0-0.1,0c0,0,0,0,0,0c0,0,0,0-0.1,0c0,0,0,0-0.1,0c0,0,0,0-0.1,0c0,0,0-0.1,0-0.1
			c0,0,0.1-0.1,0.1-0.1C5.9,36.1,6,36.1,6,36c0.1,0,0.1,0,0.1,0c0,0,0,0,0,0c0,0,0,0,0,0l0,0c0,0,0.1,0,0.2,0l0,0c0,0,0,0,0,0l0,0
			c0,0,0,0,0,0c0,0,0,0,0,0c0,0,0.1,0,0.1,0c0.1,0,0.1,0,0.2-0.1c0,0,0.1,0,0.1,0l0,0c0.2-0.1,0.2,0,0.3,0c0-0.1,0.1-0.1,0.2-0.2
			l0,0c0,0,0.1-0.1,0.2-0.1c0.1,0,0.2-0.1,0.2-0.1l0,0c0.1,0,0.2,0,0.2-0.1c0.1,0,0.2,0,0.2,0c0,0,0.1,0,0.1,0c0,0,0.1,0,0.1,0
			c0,0,0.1,0,0.1,0c0,0,0.1,0,0.1,0c0.1,0,0.1,0,0.2,0c0.1,0,0.2,0,0.2,0c0.1,0,0.1,0,0.2,0l0,0c0,0,0,0,0,0c0,0,0.1,0,0.1,0l0,0
			c0,0,0,0,0,0c0,0,0,0-0.1,0c0,0-0.1,0-0.1-0.1l0,0L9.2,35C9.1,35,9.1,35,9.1,35c0,0,0.1,0.1,0.1,0.1c-0.1-0.1,0,0,0,0
			c0,0-0.1-0.1-0.1-0.1c0,0,0,0,0,0c0,0-0.1-0.1-0.2-0.1c-0.1-0.1,0,0-0.1-0.1c-0.1,0-0.1-0.1-0.2-0.1c-0.1,0-0.1-0.1-0.2-0.1
			c-0.1-0.1-0.3-0.2-0.4-0.2c-0.3-0.1-0.6-0.2-0.9-0.3c0,0,0,0,0,0c-0.1,0-0.2,0-0.3,0c0,0-0.1,0-0.1,0c0,0-0.1,0-0.1,0
			c-0.1,0-0.1-0.1-0.1-0.1c0,0-0.1,0-0.1,0c0,0,0,0-0.1,0c0,0-0.1,0-0.1,0c0,0,0,0,0,0c0,0,0,0,0,0c0,0-0.1,0-0.1,0
			c-0.1,0-0.1,0-0.2,0c-0.1,0-0.2,0-0.4,0c0,0,0,0,0,0c0,0,0,0,0,0c0,0-0.1,0-0.1,0c-0.1,0-0.1,0-0.1,0C4.9,33.9,4.7,33.9,4.7,33.9z
			"/>
	</g>
	<path class="st4" d="M4.9,37.8c-0.4,0.1-0.9,0.2-1.2,0c0,0,0,0-0.1,0c0,0,0,0,0,0c0,0,0-0.1-0.1-0.1c-0.1-0.2-0.1-0.4,0-0.6
		c0.1-0.4,0.3-0.8,0.6-1.2c0.2-0.2,0.3-0.4,0.5-0.5C4.7,35.3,4.3,35,4.3,35c0,0,0,0,0,0c0.1,0-0.1,0-0.1,0c-0.1-0.1-0.2-0.1-0.2-0.2
		c-0.1-0.1-0.2-0.1-0.2-0.2c-0.1-0.1,0-0.3,0-0.4C4,33.7,4.5,33.4,5,33.2c0.4-0.2,0.9-0.3,1.4-0.3c0.2,0,0.5,0,0.7,0
		c0.2,0-0.1-0.3-0.1-0.3c0.1,0.1,0,0,0,0c0,0-0.1-0.1-0.1-0.1c-0.1-0.1-0.2-0.2-0.3-0.3C6.4,32,6.1,31.7,6,31.4
		c-0.1-0.4,0.1-0.7,0.4-0.9c0.4-0.3,0.9-0.2,1.4,0c0.3,0.1,0.7,0.4,0.7,0.7c0,0.1,0.1,0.2,0.2,0.3c0,0,0.2,0.1,0.2,0
		c0-0.5-0.5-0.9-0.8-1.1c-0.5-0.3-1.1-0.5-1.6-0.4c-0.5,0.1-0.9,0.4-0.9,1c0,0.5,0.3,0.9,0.6,1.2c0.2,0.3,0.5,0.5,0.8,0.7
		c0-0.1-0.1-0.2-0.1-0.3c-0.8-0.1-1.6,0.1-2.3,0.4c-0.5,0.2-1.1,0.5-1.2,1c-0.1,0.4,0.1,0.8,0.4,1c0.2,0.2,0.5,0.4,0.7,0.5
		c-0.1-0.1-0.2-0.2-0.3-0.3c-0.6,0.5-1.1,1.2-1.1,1.9c0,0.5,0.1,0.9,0.5,1.1c0.3,0.2,0.6,0.3,1,0.2c0.2,0,0.4,0,0.7-0.1
		C5.4,38.2,5,37.8,4.9,37.8L4.9,37.8z"/>
</g>
<g>
	<path class="st4" d="M9.3,39.2c2.2-1.1,4.5-1.8,6.9-2.4c2.4-0.5,4.8-0.8,7.3-0.9c2.4,0,4.9-0.2,7.3,0.4c2.4,0.5,4.7,1.3,6.9,2.6
		L37.5,39c-1.2,0-2.4-0.2-3.6-0.4c-0.6,0-1.2-0.1-1.8-0.2c-0.6-0.1-1.2-0.2-1.8-0.2c-0.6-0.1-1.2-0.1-1.7-0.2
		c-0.6-0.1-1.2-0.1-1.7-0.2c-1.2-0.2-2.3-0.3-3.5-0.4c-2.4-0.1-4.7,0-7.1,0.3c-2.4,0.3-4.7,0.8-7,1.6L9.3,39.2z"/>
</g>
</svg>
