<?xml version="1.0" encoding="utf-8"?>
<!-- Generator: Adobe Illustrator 18.0.0, SVG Export Plug-In . SVG Version: 6.00 Build 0)  -->
<!DOCTYPE svg PUBLIC "-//W3C//DTD SVG 1.1//EN" "http://www.w3.org/Graphics/SVG/1.1/DTD/svg11.dtd">
<svg version="1.1" id="Layer_1" xmlns="http://www.w3.org/2000/svg" xmlns:xlink="http://www.w3.org/1999/xlink" x="0px" y="0px"
	 viewBox="2.5 2.5 20 20" enable-background="new 2.5 2.5 20 20" xml:space="preserve">
<path fill="#FEE000" d="M21.8,10.9c-0.7-4.1-4.6-3-6.8-1.8c0.6-2.5,0.7-5.3-2-5.7c-1-0.2-2.1,0.2-2.8,1.3S8.9,8,9.5,9.2L9.2,8.5
	C8.7,8.3,8,6.7,7.4,6.3C6.6,5.9,5.6,5.9,4.8,6.2c-1.6,0.6-2.3,2.9-1.3,4.5c1.1,1.6,3.2,1.6,4.7,2.1c-1.5,0.7-4.2,1.8-3.3,4.5
	c0.8,2.1,3.2,3.3,4.9,2.1c1.1-0.8,1.9-2.2,2.5-3.5c0,3,0.9,5.6,3.7,5.7c1.9,0.2,4.5-1.4,3.3-4.1c-0.6-1.2-1.6-1.9-2.5-2.6
	C19.3,15.2,22.4,14.5,21.8,10.9z"/>
<path fill="#EE3224" d="M15.3,11.1c-1-2-3-2.6-4.6-1.4c-0.5,0.3-1,0.7-1.3,1.3c-1,1.8,1.2,4.3,2.7,4.2C14,15,16.3,13.3,15.3,11.1z"
	/>
<path fill="#4E4245" d="M22.3,9.9c-0.8-3.5-4.1-3.1-6.4-2.1c0.2-2.5-0.3-5.2-2.9-5.3c-2.5-0.2-4.3,2.2-4.3,4.9c-0.7-1-1-1.8-2.4-2.1
	C5.1,5.1,3.5,5.9,3,7.1c-1.6,3.7,1,4.9,3.5,5.9c-2,1.3-3.2,3.2-1.4,6c0.8,1.2,2.5,1.9,3.8,1.6c1.4-0.4,2.3-1.4,3.1-2.5
	c0.6,3.1,2.7,5.1,5.8,4.2c1.1-0.3,2.5-1.4,2.6-2.9c0.2-1.6-0.5-2.8-1.4-3.7C21.4,15.2,23.1,13.4,22.3,9.9z M17,14.1
	c-0.7-0.1-0.9,1.1-0.3,1.5c1,0.7,1.9,1.4,2.4,2.8c0.6,1.9-2.1,2.4-2.9,2.4c-2.4,0-3-2.7-3.1-4.9c0-0.8-0.9-1-1.3-0.4
	c-1.2,2.2-2.5,4.5-5,3.1c-1.5-0.8-1.5-3.2-0.2-4.1c0.6-0.4,1.2-0.6,1.8-1c0.6-0.2,0.6-1.3,0-1.4C7,11.7,1.7,11,4.2,7.3
	c1.5-2.3,3.2,0,4.5,1.1c0.1,0.5,0.2,0.8,0.3,1.2c0.3,0.8,1.4,0.2,1.2-0.6c-0.7-2.5,0.8-5.3,3.2-4.7c1.8,0.5,1.2,3.3,0.9,4.5
	c-0.2,0.8,0.5,1.2,1,1c1.7-0.9,4.3-2,5.6,0.2C22.7,13.4,18.8,14.3,17,14.1z"/>
</svg>
